<svg width="1043" height="527" viewBox="0 0 1043 527" fill="none" xmlns="http://www.w3.org/2000/svg">
<rect width="1043" height="527" fill="white"/>
<path d="M319.311 169.027V277.721L233.996 313.952V266.032L281.902 246.157V184.22L319.311 169.027Z" fill="#6C6FB4"/>
<path d="M233.996 131.618L319.311 169.027L281.902 184.22L233.996 163.182L186.06 184.22L149.844 169.027L233.996 131.618Z" fill="#6C6FB4"/>
<path d="M233.996 266.032V313.952L149.844 277.721V169.027L186.06 184.22V246.157L233.996 266.032Z" fill="#6C6FB4"/>
<path d="M325.155 169.027V167.849V166.686L323.977 165.508L236.321 126.951C235.677 126.381 234.847 126.066 233.987 126.066C233.128 126.066 232.298 126.381 231.654 126.951L146.265 163.182L145.102 164.345V165.508V166.686V275.38C145.068 276.593 145.38 277.79 146 278.833C146.62 279.875 147.524 280.72 148.606 281.269L232.758 317.501H239.766L323.977 281.225C325.061 280.677 325.966 279.833 326.589 278.79C327.212 277.748 327.526 276.55 327.496 275.336L325.155 169.027ZM233.995 138.64L302.939 169.027L281.901 178.376L236.262 158.501C235.614 157.939 234.786 157.63 233.929 157.63C233.071 157.63 232.243 157.939 231.595 158.501L186.074 177.139H184.896L165.036 169.027L233.995 138.64ZM228.106 304.604L155.673 273.04V177.139L180.229 187.665V244.935C180.199 246.147 180.512 247.343 181.132 248.385C181.752 249.427 182.654 250.272 183.733 250.824L228.15 269.521L228.106 304.604ZM233.995 260.187L191.904 242.653V188.917L233.995 170.22L276.071 188.917V242.653L233.995 260.187ZM312.302 273.04L239.825 304.604V270.743L284.242 252.046C285.324 251.497 286.227 250.652 286.848 249.609C287.468 248.567 287.779 247.369 287.746 246.157V187.724L312.302 177.139V273.04Z" fill="#4B4CA0"/>
<path d="M281.902 246.157V184.22L233.996 163.182V225.119L281.902 246.157Z" fill="white"/>
<path d="M281.902 246.157L233.996 225.119L186.061 246.157L233.996 266.032L281.902 246.157Z" fill="white"/>
<path d="M233.996 225.119V163.182L186.061 184.22V246.157L233.996 225.119Z" fill="white"/>
<path d="M284.243 178.375L236.322 158.5H229.315L183.676 178.375C181.335 179.539 178.994 181.879 178.994 184.264V246.157C178.994 248.497 180.172 250.838 183.676 252.045L231.597 273.084C232.24 273.654 233.07 273.969 233.93 273.969C234.79 273.969 235.62 273.654 236.264 273.084L284.184 252.045C286.525 250.882 288.866 248.542 288.866 246.157V184.22C288.925 181.879 286.584 179.539 284.243 178.375ZM191.906 188.917L228.152 173.723V222.778L191.906 237.986V188.917ZM233.996 260.216L201.269 246.157L233.996 232.141L266.709 246.157L233.996 260.216ZM276.072 236.837L239.826 221.615V172.531L276.072 187.724V236.837Z" fill="#4B4CA0"/>
<path d="M339.583 344.53V386.194V386.636C339.44 387.922 338.814 389.106 337.831 389.949C336.853 390.812 335.588 391.279 334.283 391.259H308.873C307.751 391.256 306.663 390.878 305.781 390.184C305.125 389.692 304.596 389.051 304.237 388.314C303.879 387.576 303.701 386.764 303.72 385.944V344.781C303.714 344.074 303.85 343.372 304.121 342.719C304.391 342.066 304.79 341.473 305.294 340.977C305.799 340.482 306.397 340.092 307.055 339.833C307.713 339.573 308.416 339.448 309.123 339.466H334.151C334.516 339.466 334.88 339.496 335.24 339.554C336.308 339.751 337.29 340.272 338.051 341.047C338.812 341.821 339.316 342.812 339.495 343.883L339.583 344.53ZM307.312 365.333V385.767C307.298 385.89 307.298 386.013 307.312 386.135C307.376 386.528 307.58 386.884 307.885 387.139C308.191 387.393 308.578 387.528 308.976 387.519H334.21C334.526 387.531 334.838 387.449 335.108 387.284C335.365 387.135 335.578 386.92 335.723 386.661C335.868 386.402 335.94 386.108 335.932 385.812V344.972C335.955 344.781 335.955 344.589 335.932 344.398C335.836 344.038 335.621 343.721 335.321 343.499C335.022 343.277 334.656 343.163 334.283 343.176H310.581H308.961C308.743 343.188 308.529 343.238 308.328 343.323C308.021 343.451 307.76 343.671 307.584 343.954C307.407 344.236 307.322 344.566 307.342 344.899L307.312 365.333ZM333.371 363.404H310.036C310.029 363.36 310.029 363.316 310.036 363.272V352.966C310.006 351.637 310.375 350.33 311.096 349.212C311.485 348.608 311.999 348.094 312.603 347.705C313.208 347.317 313.889 347.062 314.6 346.96C315.752 346.779 316.932 346.891 318.03 347.284C318.749 347.544 319.394 347.977 319.907 348.544C320.42 349.111 320.787 349.796 320.975 350.537C320.975 350.625 320.975 350.714 321.048 350.802C321.069 350.843 321.094 350.883 321.122 350.92V350.802C321.216 350.23 321.379 349.671 321.608 349.139C321.945 348.339 322.477 347.637 323.156 347.097C323.836 346.557 324.639 346.196 325.494 346.047C326.767 345.765 328.096 345.872 329.307 346.356C330.018 346.639 330.662 347.065 331.202 347.606C331.741 348.148 332.163 348.795 332.443 349.507C332.838 350.376 333.077 351.308 333.15 352.26L333.253 354.424V363.257L333.371 363.404ZM329.661 357.839V357.692V355.204C329.656 354.873 329.622 354.543 329.558 354.218C329.472 353.734 329.263 353.281 328.951 352.902C328.639 352.523 328.234 352.231 327.776 352.054C327.157 351.834 326.49 351.788 325.848 351.921C325.409 351.966 324.993 352.137 324.651 352.414C324.308 352.691 324.054 353.062 323.919 353.482C323.74 353.992 323.656 354.531 323.669 355.072V357.722V357.839H329.661ZM313.643 357.839H319.281V357.722V355.66C319.269 355.335 319.235 355.01 319.178 354.689C319.108 354.277 318.937 353.89 318.68 353.561C318.423 353.232 318.089 352.972 317.706 352.804C317.184 352.593 316.618 352.512 316.057 352.569C315.619 352.583 315.193 352.72 314.828 352.965C314.464 353.21 314.175 353.552 313.996 353.953C313.763 354.45 313.642 354.993 313.643 355.543V357.722C313.637 357.761 313.637 357.8 313.643 357.839ZM333.371 384.089H310.021V374.77C310.01 373.386 310.312 372.017 310.905 370.765C311.642 369.306 312.836 368.128 314.305 367.409C315.387 366.868 316.543 366.49 317.736 366.29C319.389 366.013 321.067 365.919 322.741 366.01C324.375 366.041 325.996 366.304 327.555 366.79C328.616 367.104 329.613 367.602 330.5 368.263C331.815 369.291 332.735 370.742 333.106 372.37C333.301 373.22 333.395 374.09 333.385 374.961V384.06L333.371 384.089ZM313.672 378.48H329.572C329.646 378.48 329.661 378.48 329.661 378.377V375.697C329.634 375.222 329.513 374.757 329.303 374.329C329.093 373.902 328.799 373.521 328.439 373.209C327.774 372.665 327.001 372.269 326.171 372.046C325.083 371.74 323.96 371.572 322.83 371.546C321.354 371.453 319.873 371.522 318.413 371.752C317.532 371.886 316.681 372.17 315.895 372.591C315.26 372.921 314.726 373.417 314.35 374.026C313.974 374.635 313.771 375.335 313.761 376.051V378.333C313.658 378.377 313.672 378.421 313.672 378.48Z" fill="#6C6FB4"/>
<path d="M200.458 380.07C200.459 380.619 200.248 381.146 199.869 381.542C199.686 381.751 199.459 381.917 199.205 382.026C198.95 382.136 198.674 382.187 198.397 382.176H192.508C192.23 382.188 191.954 382.137 191.699 382.028C191.444 381.918 191.217 381.752 191.035 381.542C190.656 381.146 190.445 380.619 190.447 380.07V339.363H184.999L176.166 351.818V378.318V378.789L182.055 387.269L185.515 392.084C186.816 392.362 188.144 392.505 189.475 392.51H191.713C196.188 392.51 199.53 391.269 201.739 388.786V391.451H214.738V339.363H200.458V380.07ZM298.67 370.427V353.585C298.67 344.202 294.253 339.51 285.42 339.51H273.377C264.544 339.51 260.127 344.202 260.127 353.585V378.377C260.127 387.76 264.544 392.447 273.377 392.437H285.42C294.253 392.437 298.67 387.75 298.67 378.377V374.314H284.374V380.07C284.374 380.616 284.169 381.141 283.8 381.542C283.616 381.749 283.388 381.913 283.134 382.022C282.88 382.131 282.605 382.184 282.328 382.176H276.439C276.162 382.187 275.886 382.136 275.631 382.026C275.376 381.917 275.149 381.751 274.967 381.542C274.588 381.146 274.376 380.619 274.378 380.07V370.427H298.67ZM274.466 351.45C274.465 350.902 274.676 350.374 275.055 349.978C275.237 349.767 275.463 349.6 275.718 349.488C275.973 349.376 276.249 349.322 276.527 349.33H282.416C282.694 349.325 282.97 349.38 283.224 349.492C283.478 349.604 283.705 349.77 283.889 349.978C284.259 350.379 284.464 350.905 284.463 351.45V361.049H274.555L274.466 351.45Z" fill="#4B4CA0"/>
<path d="M172.353 355.822L172.368 355.866L172.324 355.851L172.353 355.822Z" fill="white"/>
<path d="M169.969 355.852L171.544 353.967L180.466 341.292L181.732 339.378H180.79H166.421C165.487 339.261 164.541 339.426 163.701 339.851C162.862 340.276 162.169 340.941 161.71 341.763C157.293 348.373 152.612 354.777 148.048 361.27C145.913 364.302 145.957 366.555 148.121 369.588L149.593 371.634L158.427 383.912L162.843 390.523C163.002 390.795 163.233 391.018 163.512 391.167C163.79 391.315 164.104 391.383 164.419 391.362H180.805H181.732C181.541 391.009 181.438 390.773 181.305 390.567L177.639 385.355L166.171 368.969C165.534 368.196 165.122 367.262 164.979 366.271C164.837 365.279 164.969 364.267 165.361 363.345C166.105 361.907 166.936 360.516 167.849 359.179L169.998 355.822L169.969 355.852ZM133.163 365.348V390.11C133.163 391.009 133.34 391.332 134.312 391.318C138.483 391.259 142.659 391.259 146.84 391.318C147.724 391.318 147.9 391.023 147.886 390.214V376.434C147.851 375.841 147.663 375.268 147.341 374.77C146.531 373.504 145.604 372.297 144.765 371.045C143.618 369.539 142.958 367.719 142.871 365.828C142.784 363.937 143.275 362.065 144.279 360.46C145.133 358.988 146.148 357.619 147.135 356.249C147.682 355.538 147.964 354.658 147.93 353.761C147.93 349.335 147.93 344.918 147.93 340.511C147.93 339.672 147.738 339.392 146.87 339.407H134.341C133.473 339.407 133.193 339.628 133.208 340.541L133.09 365.348H133.163Z" fill="#6C6FB4"/>
<path d="M243.8 350.611H241.563C238.445 350.481 235.372 351.381 232.818 353.172V339.628H218.537V391.377H230.639V387.534C232.847 390.802 236.508 392.437 241.622 392.437H243.859C252.693 392.437 257.109 387.75 257.109 378.377V364.685C257.05 355.292 252.614 350.601 243.8 350.611ZM241.504 380.055C241.505 380.604 241.294 381.131 240.915 381.527C240.732 381.736 240.505 381.902 240.251 382.011C239.996 382.121 239.72 382.172 239.443 382.16H233.554C233.277 382.173 233 382.122 232.745 382.013C232.49 381.903 232.263 381.737 232.082 381.527C231.702 381.131 231.491 380.604 231.493 380.055V362.977C231.491 362.429 231.702 361.901 232.082 361.505C232.263 361.295 232.49 361.13 232.745 361.02C233 360.91 233.277 360.86 233.554 360.872H239.443C239.72 360.861 239.996 360.912 240.251 361.021C240.505 361.131 240.732 361.296 240.915 361.505C241.294 361.901 241.505 362.429 241.504 362.977V380.055Z" fill="#4B4CA0"/>
<path d="M801.739 154.633L745.416 181.757C743.982 182.448 742.722 183.452 741.73 184.696C740.737 185.94 740.04 187.392 739.686 188.943L725.772 249.89C725.412 251.446 725.409 253.062 725.763 254.619C726.118 256.175 726.82 257.631 727.817 258.878L766.815 307.731C767.81 308.97 769.071 309.97 770.504 310.656C771.937 311.343 773.506 311.699 775.095 311.699H837.589C839.178 311.702 840.748 311.345 842.181 310.659C843.614 309.973 844.875 308.972 845.869 307.731L884.849 258.878C885.843 257.636 886.543 256.184 886.897 254.632C887.25 253.081 887.251 251.47 886.895 249.918L872.981 188.942C872.629 187.39 871.93 185.938 870.938 184.695C869.946 183.45 868.687 182.446 867.253 181.756L810.93 154.632C809.496 153.941 807.925 153.582 806.334 153.582C804.741 153.582 803.17 153.941 801.737 154.632L801.739 154.633Z" fill="#431BB1"/>
<path d="M757.66 237.286L757.711 231.823C757.65 231.127 757.792 230.428 758.119 229.81C759.032 228.434 760.533 229.244 761.627 229.81C763.216 230.631 764.853 231.355 766.53 231.976C769.874 233.184 773.313 234.113 776.81 234.753L781.038 235.484C791.238 237.043 801.577 237.495 811.874 236.833C818.315 236.497 824.716 235.627 831.013 234.232C835.633 233.172 840.15 231.795 844.292 229.397C845.993 228.428 847.455 229.305 847.477 231.284V241.559C847.477 243.412 846.071 244.268 844.412 243.508C839.276 241.142 833.521 240.473 827.98 241.599C822.439 242.725 817.401 245.588 813.597 249.771C812.024 251.501 810.69 253.434 809.63 255.518C809.333 256.235 808.807 256.833 808.133 257.219C807.553 257.441 806.929 257.531 806.309 257.479C798.769 257.54 791.234 257.095 783.753 256.147L781.09 255.761C775.088 254.844 769.052 253.494 763.707 250.662C762.122 249.88 760.694 248.812 759.497 247.511C757.655 245.363 757.609 242.863 757.633 240.178L757.661 237.288L757.66 237.286ZM799.409 282.021C791.905 281.658 784.447 281.154 777.08 279.527C771.922 278.394 766.141 277.131 761.777 273.979C759.568 272.381 757.629 270.142 757.662 267.262V255.78C757.662 253.877 759.176 252.946 760.825 253.859C766.34 256.948 772.352 258.433 778.496 259.555C787.026 261.103 795.628 261.584 804.272 261.63C805.195 261.63 806.278 261.777 806.662 262.735C807.145 263.925 806.629 265.568 806.579 266.799C806.448 270.324 807.036 273.839 808.307 277.131C808.703 278.139 809.184 279.267 809.095 280.371C808.981 281.731 807.774 282.117 806.595 282.145C804.22 282.208 801.817 282.117 799.409 282.021ZM817.686 268.814C817.686 259.18 825.656 251.342 835.483 251.32C845.224 251.32 853.261 259.187 853.261 268.77C853.185 273.432 851.28 277.879 847.957 281.151C844.635 284.425 840.16 286.263 835.497 286.269C830.833 286.275 826.354 284.449 823.023 281.184C819.692 277.92 817.776 273.478 817.686 268.816V268.814ZM835.483 255.536C832.859 255.576 830.306 256.39 828.145 257.877C825.984 259.364 824.31 261.456 823.334 263.891C822.358 266.326 822.124 268.995 822.661 271.564C823.197 274.132 824.481 276.483 826.35 278.323C828.22 280.164 830.592 281.411 833.168 281.908C835.743 282.404 838.409 282.129 840.828 281.114C843.248 280.1 845.314 278.394 846.767 276.21C848.22 274.027 848.995 271.46 848.993 268.836C848.956 265.284 847.514 261.891 844.982 259.398C842.451 256.906 839.035 255.518 835.483 255.536ZM833.695 250.164L834.342 249.694L833.866 249.281C834.158 249.092 834.374 248.808 834.477 248.477C834.581 248.145 834.565 247.788 834.433 247.467L833.894 245.908C833.75 245.572 833.712 245.2 833.782 244.84C833.853 244.482 834.03 244.152 834.29 243.895C834.576 243.666 834.92 243.524 835.285 243.49C835.649 243.456 836.015 243.53 836.337 243.702C837.124 244.104 837.379 245.051 836.977 246.077L836.496 247.459C836.359 247.782 836.341 248.141 836.444 248.475C836.547 248.81 836.766 249.097 837.062 249.284L836.585 249.663L837.339 250.276H833.695V250.164ZM833.859 288.396L834.334 288.01L833.586 287.404H837.377L836.63 287.971L837.089 288.378C836.796 288.566 836.578 288.851 836.473 289.182C836.37 289.513 836.388 289.871 836.522 290.192C836.663 290.703 836.868 291.196 837.043 291.689C837.241 292.022 837.319 292.412 837.263 292.795C837.207 293.178 837.024 293.531 836.741 293.796C836.459 294.061 836.094 294.22 835.708 294.25C835.322 294.279 834.937 294.175 834.618 293.955C833.825 293.553 833.575 292.601 833.978 291.58L834.465 290.198C834.592 289.874 834.601 289.516 834.489 289.187C834.379 288.857 834.155 288.577 833.859 288.396ZM820.49 281.509L821.09 281.6L821.056 280.982L823.324 283.391L823.493 283.249L822.751 283.193L822.785 283.731C822.785 283.731 822.729 283.788 822.705 283.782C822.393 283.72 822.068 283.765 821.784 283.909C821.5 284.052 821.271 284.287 821.136 284.576C820.88 285.038 820.651 285.515 820.45 286.004C820.048 286.889 819.346 287.37 818.592 287.262C818.188 287.209 817.815 287.022 817.529 286.731C817.245 286.44 817.066 286.062 817.021 285.658C816.931 284.922 817.441 284.219 818.331 283.828C818.784 283.644 819.226 283.436 819.656 283.204C819.97 283.061 820.224 282.815 820.376 282.506C820.528 282.197 820.568 281.845 820.49 281.509ZM848.164 283.816L848.22 283.193L847.654 283.255L849.881 280.813V281.549L850.448 281.515C850.448 281.549 850.499 281.583 850.493 281.612C850.427 281.912 850.465 282.227 850.601 282.504C850.737 282.781 850.963 283.003 851.241 283.136C851.718 283.408 852.213 283.648 852.721 283.856C853.098 283.983 853.421 284.235 853.637 284.57C853.853 284.904 853.947 285.303 853.906 285.699C853.864 286.095 853.689 286.466 853.408 286.749C853.128 287.032 852.759 287.211 852.363 287.257C851.958 287.267 851.561 287.145 851.231 286.911C850.901 286.677 850.655 286.339 850.533 285.952C850.352 285.499 850.143 285.056 849.909 284.627C849.764 284.305 849.508 284.046 849.188 283.897C848.867 283.748 848.504 283.719 848.164 283.816ZM847.474 254.391L848.182 254.476V253.87C849.107 254.051 849.616 253.512 850.002 252.798C850.29 252.265 850.489 251.664 850.811 251.165C850.985 250.85 851.263 250.605 851.598 250.473C851.932 250.341 852.302 250.332 852.643 250.445C853.002 250.555 853.319 250.772 853.553 251.066C853.787 251.361 853.927 251.719 853.952 252.094C853.931 252.476 853.795 252.842 853.563 253.145C853.33 253.448 853.011 253.675 852.649 253.794L851.571 254.27C850.829 254.656 850.274 255.177 850.438 256.129L849.832 256.078L849.894 256.645L847.627 254.202L847.474 254.391ZM822.786 253.87L822.741 254.436L823.461 254.363L823.359 254.266L821.058 256.811L821.102 256.103H820.501C820.684 255.206 820.173 254.691 819.481 254.311L817.782 253.472C817.474 253.306 817.233 253.039 817.101 252.715C816.967 252.392 816.949 252.033 817.05 251.698C817.149 251.336 817.357 251.012 817.644 250.771C817.931 250.529 818.286 250.38 818.66 250.344C819.391 250.276 820.077 250.803 820.462 251.698C820.651 252.17 820.875 252.629 821.131 253.069C821.276 253.369 821.519 253.611 821.819 253.756C822.119 253.902 822.461 253.94 822.786 253.868V253.87ZM855.001 270.514C854.837 270.101 854.655 269.846 854.287 270.344V267.414L854.685 267.664L855.029 267.227C855.512 267.959 856.203 268.009 856.957 267.794C857.461 267.647 857.949 267.432 858.448 267.267C858.785 267.124 859.157 267.09 859.515 267.17C859.873 267.249 860.197 267.438 860.443 267.708C860.675 267.994 860.814 268.344 860.842 268.711C860.868 269.078 860.782 269.444 860.596 269.761C860.187 270.514 859.252 270.753 858.261 270.373C857.769 270.176 857.267 270.004 856.758 269.856C856.435 269.743 856.082 269.746 855.761 269.867C855.44 269.987 855.171 270.216 855.001 270.514ZM815.946 267.177C816.139 267.551 816.286 267.907 816.666 267.318V270.26L816.269 270.015L815.923 270.459C815.736 270.164 815.45 269.945 815.117 269.842C814.785 269.737 814.425 269.755 814.105 269.892C813.577 270.039 813.073 270.248 812.551 270.425C812.216 270.567 811.845 270.607 811.487 270.538C811.129 270.469 810.798 270.295 810.539 270.039C810.309 269.755 810.167 269.409 810.131 269.045C810.096 268.681 810.169 268.315 810.342 267.993C810.749 267.193 811.678 266.944 812.704 267.34C813.177 267.532 813.659 267.699 814.149 267.839C814.478 267.961 814.84 267.96 815.169 267.838C815.499 267.717 815.774 267.482 815.946 267.177ZM830.293 267.635C830.523 267.493 830.708 267.292 830.829 267.052C830.95 266.812 831.003 266.542 830.979 266.274C830.979 266.143 830.848 265.934 830.747 265.912C830.406 265.845 830.084 265.702 829.806 265.493C829.528 265.284 829.299 265.017 829.137 264.71L828.491 263.52C828.016 262.545 828.021 262.545 826.932 262.806V261.712H825.669C825.737 261.485 825.742 261.253 825.856 261.145L827.89 259.184C827.986 259.094 828.175 259.105 828.316 259.065C828.342 259.209 828.357 259.356 828.362 259.502L828.332 260.266H829.466C829.239 261.36 829.245 261.35 830.243 261.848C830.731 262.055 831.191 262.322 831.614 262.641C831.989 263.014 832.32 263.429 832.6 263.878C832.685 263.995 832.702 264.296 832.747 264.296C833.073 264.325 833.399 264.283 833.706 264.172C834.273 263.888 834.396 263.605 834.062 262.987C833.933 262.735 833.858 262.459 833.84 262.176C833.822 261.893 833.863 261.61 833.96 261.344C834.077 260.826 834.23 260.315 834.42 259.819C834.652 259.252 834.543 258.872 833.938 258.685C833.84 258.635 833.747 258.573 833.66 258.504L834.543 257.683L833.507 256.849C834.813 256.567 836.163 256.553 837.475 256.81L836.516 257.711L837.372 258.516L836.874 258.788C836.793 258.812 836.718 258.854 836.655 258.91C836.592 258.967 836.543 259.038 836.512 259.117C836.479 259.195 836.465 259.278 836.469 259.362C836.473 259.446 836.499 259.53 836.538 259.604L837.031 261.179C837.243 261.864 837.211 262.601 836.942 263.265C836.89 263.429 836.737 263.685 836.789 263.729C837.002 263.979 837.271 264.174 837.576 264.296C838.205 264.472 838.376 264.415 838.596 263.729C838.8 263.178 839.204 262.725 839.73 262.46L840.766 261.893C841.771 261.394 841.775 261.4 841.544 260.312H842.62V259.496C842.63 259.369 842.649 259.242 842.677 259.117C842.801 259.117 842.972 259.117 843.051 259.196L845.204 261.276C845.295 261.372 845.267 261.581 845.301 261.774L844.066 261.712L844.128 262.766C844.014 262.812 843.974 262.852 843.946 262.84C842.982 262.591 842.988 262.597 842.535 263.514C842.347 263.967 842.103 264.395 841.81 264.789C841.407 265.217 840.965 265.606 840.49 265.951C840.359 266.06 840.019 266.088 840.024 266.139C840.029 266.48 840.088 266.819 840.2 267.142C840.432 267.708 840.92 267.708 841.333 267.43C841.574 267.3 841.839 267.222 842.112 267.202C842.384 267.183 842.658 267.223 842.914 267.317L844.332 267.725C845.277 268.021 845.279 268.025 845.963 266.915L846.53 267.935L847.347 267.05C847.795 267.05 847.771 267.396 847.783 267.714C847.896 270.219 847.863 270.473 847.364 270.718L846.576 269.89L845.8 270.735C845.721 270.617 845.648 270.493 845.584 270.366C845.559 270.261 845.507 270.164 845.436 270.082C845.366 269.999 845.274 269.936 845.174 269.896C845.073 269.856 844.965 269.84 844.856 269.849C844.749 269.859 844.644 269.895 844.553 269.952C844.116 270.129 843.652 270.242 843.204 270.383C842.788 270.544 842.339 270.597 841.897 270.537C841.455 270.477 841.036 270.308 840.677 270.043L840.398 270.372C839.736 271.092 839.776 271.686 840.631 271.981C841.166 272.179 841.603 272.575 841.854 273.086C842.093 273.466 842.302 273.868 842.507 274.276C842.954 275.189 842.948 275.195 844.002 274.894V276.028C844.303 276.028 844.569 275.976 844.859 275.976C844.977 275.976 845.16 275.976 845.204 276.079C845.23 276.138 845.241 276.203 845.235 276.268C845.229 276.333 845.207 276.393 845.17 276.448L842.966 278.568C842.727 278.782 842.524 278.675 842.558 278.311L842.632 277.434H841.453L841.594 276.986C841.638 276.902 841.663 276.811 841.667 276.717C841.672 276.623 841.655 276.529 841.619 276.442C841.584 276.356 841.528 276.278 841.458 276.215C841.389 276.152 841.305 276.106 841.214 276.079L839.446 275.139C839.171 274.981 838.932 274.766 838.75 274.506C838.567 274.246 838.445 273.949 838.392 273.636C838.324 273.331 837.592 273.262 837.208 273.54C837.009 273.687 836.834 273.868 836.596 274.079C837.367 275.025 837.162 276.046 836.811 277.076L836.652 277.581C836.329 278.607 836.329 278.607 837.292 279.202L836.46 279.99L837.389 280.869C836.107 281.135 834.783 281.135 833.501 280.869L834.442 279.972L833.586 279.151L834.04 278.918C834.131 278.894 834.215 278.849 834.286 278.787C834.356 278.724 834.411 278.646 834.446 278.559C834.483 278.472 834.498 278.377 834.49 278.283C834.485 278.189 834.455 278.098 834.408 278.017C834.239 277.575 834.125 277.116 833.977 276.668C833.805 276.24 833.744 275.775 833.798 275.317C833.853 274.858 834.021 274.42 834.289 274.045C834.122 273.855 833.932 273.687 833.722 273.546C833.474 273.459 833.218 273.396 832.958 273.359C832.493 273.24 832.612 273.591 832.526 273.834C832.272 274.487 831.777 275.017 831.144 275.314L830.05 275.881C829.159 276.322 829.154 276.322 829.483 277.36H828.35C828.35 277.671 828.35 277.967 828.406 278.261C828.462 278.556 828.242 278.731 828.01 278.522L825.8 276.402C825.714 276.311 825.748 276.102 825.725 275.943H826.894L826.848 274.906C826.972 274.872 827.012 274.843 827.045 274.855C827.976 275.121 827.964 275.115 828.39 274.288C828.628 273.749 828.922 273.236 829.267 272.758C829.636 272.375 830.049 272.038 830.498 271.754C830.633 271.658 830.951 271.607 830.951 271.557C830.934 271.215 830.867 270.88 830.752 270.559C830.673 270.355 830.458 270.207 830.259 269.992C829.08 270.938 827.868 270.395 826.667 269.992C825.681 269.68 825.681 269.675 825.096 270.763L824.309 269.799L823.435 270.712C823.311 270.518 823.219 270.306 823.163 270.083C822.988 268.094 823.095 267.249 823.549 266.966L824.336 267.822L825.142 266.955L825.38 267.396C825.405 267.488 825.451 267.571 825.513 267.642C825.575 267.713 825.652 267.768 825.738 267.804C825.825 267.841 825.919 267.857 826.013 267.853C826.108 267.848 826.199 267.822 826.281 267.776C826.717 267.607 827.176 267.482 827.63 267.351C829.109 266.927 829.313 267.231 830.293 267.635ZM835.45 265.027C834.459 265.051 833.516 265.459 832.819 266.166C832.124 266.873 831.73 267.822 831.721 268.814C831.717 269.31 831.811 269.802 831.998 270.263C832.185 270.723 832.46 271.141 832.809 271.495C833.16 271.847 833.575 272.128 834.033 272.319C834.491 272.511 834.983 272.61 835.48 272.611C836.472 272.61 837.425 272.226 838.14 271.539C838.854 270.85 839.274 269.912 839.31 268.922C839.291 267.897 838.878 266.921 838.155 266.195C837.432 265.469 836.457 265.051 835.434 265.027H835.45ZM835.518 266.247C836.191 266.284 836.824 266.579 837.285 267.071C837.744 267.564 837.997 268.215 837.99 268.888C837.983 269.562 837.716 270.207 837.245 270.69C836.774 271.171 836.135 271.454 835.462 271.477C835.108 271.489 834.756 271.429 834.426 271.302C834.096 271.174 833.796 270.98 833.542 270.734C833.289 270.488 833.089 270.191 832.953 269.864C832.818 269.537 832.75 269.185 832.753 268.832C832.756 268.478 832.832 268.128 832.974 267.804C833.117 267.48 833.324 267.188 833.584 266.947C833.841 266.706 834.146 266.519 834.479 266.398C834.811 266.277 835.165 266.226 835.518 266.247ZM836.936 268.87C836.938 268.582 836.854 268.3 836.696 268.059C836.538 267.817 836.312 267.629 836.047 267.517C835.782 267.405 835.489 267.374 835.206 267.427C834.923 267.482 834.662 267.619 834.457 267.82C834.252 268.022 834.111 268.281 834.053 268.564C833.995 268.846 834.022 269.138 834.13 269.405C834.238 269.672 834.422 269.9 834.66 270.062C834.898 270.224 835.179 270.313 835.468 270.314C835.662 270.322 835.857 270.289 836.039 270.217C836.221 270.146 836.386 270.037 836.524 269.899C836.662 269.761 836.77 269.596 836.84 269.413C836.911 269.231 836.943 269.036 836.936 268.842V268.87ZM847.499 214.368V204.762C847.543 204.066 847.43 203.368 847.166 202.722C846.904 202.074 846.498 201.495 845.98 201.027C844.613 199.837 843.11 198.813 841.503 197.978C836.9 195.779 831.936 194.81 826.932 194.01C819.951 192.911 812.899 192.312 805.832 192.214C801.502 192.141 797.167 192.35 792.837 192.543C789.047 192.698 785.265 193.018 781.502 193.501C782.165 194.787 782.695 196.137 783.083 197.531C788.772 196.625 794.523 196.172 800.283 196.176C809.052 196.176 815.53 196.471 821.944 197.508C826.763 198.284 831.54 199.271 835.995 201.379C836.852 201.781 837.661 202.277 838.408 202.859C839.746 203.907 839.798 205.029 838.352 205.941C836.681 207.03 834.892 207.925 833.02 208.61C827.143 210.663 821.027 211.552 814.844 212.119C808.625 212.658 802.377 212.783 796.14 212.493V212.719C796.16 214.542 795.815 216.35 795.128 218.039C794.44 219.727 793.422 221.261 792.135 222.551C790.846 223.842 789.315 224.862 787.63 225.553C785.943 226.244 784.136 226.592 782.313 226.577H764.597C764.99 226.785 765.393 226.974 765.804 227.144C768.703 228.456 771.733 229.455 774.843 230.126C782.16 231.769 789.817 232.455 797.304 232.739C799.003 232.807 800.703 232.843 802.403 232.846C808.416 232.86 814.424 232.499 820.392 231.764C827.556 230.881 834.997 229.598 841.447 226.187C843.283 225.213 845.057 224 846.206 222.271C847.863 219.845 847.493 217.136 847.499 214.371V214.368ZM820.369 207.545C823.316 206.649 824.806 205.612 824.824 204.474C824.824 203.845 822.29 203.465 820.16 203.782L810.587 205.295C808.507 205.653 808.83 206.276 811.075 206.576L813.909 206.938L813.081 207.177C808.096 208.075 803.014 208.294 797.972 207.829C797.024 207.749 796.079 207.642 795.138 207.506C795.376 208.075 795.575 208.66 795.733 209.257C804.223 209.993 814.209 209.426 820.369 207.545ZM794.93 202.205L791.949 201.819L793.218 201.644C800.115 200.267 809.959 200.51 815.48 202.256C817.036 202.712 818.674 202.815 820.275 202.557C821.862 202.29 822.025 201.797 820.609 201.349C816.743 200.133 811.609 199.443 805.205 199.281C799.724 199.088 794.239 199.499 788.849 200.506C790.422 201.384 791.818 202.549 792.963 203.941L795.298 203.567C797.809 203.175 797.61 202.54 794.929 202.206L794.93 202.205ZM783.203 203.832C781.83 197.399 775.953 192.497 768.712 192.497C766.07 192.451 763.467 193.134 761.188 194.47C758.909 195.805 757.041 197.743 755.79 200.069C749.72 200.828 745.215 205.56 745.215 211.403C745.215 217.637 750.503 222.738 756.963 222.738H782.415C787.9 222.738 792.208 218.573 792.208 213.267C792.208 208.376 788.093 204.211 783.203 203.832ZM772.628 209.5V217.077H764.795V209.511H758.918L768.712 200.047L778.499 209.511L772.628 209.5Z" fill="white"/>
<path d="M668.832 373.533V334.974H677.739V351.593L691.859 334.974H701.851L687.406 352.19L702.83 373.533H692.62L681.758 358.056L677.739 362.182V373.533H668.832ZM703.269 363.269V345.022H711.958V361.368C711.958 363.107 712.302 364.445 712.99 365.387C713.677 366.293 714.655 366.745 715.923 366.745C716.699 366.748 717.47 366.62 718.203 366.365C718.927 366.075 719.633 365.623 720.322 365.008C721.011 364.392 721.624 363.596 722.168 362.618V345.022H730.857V363.867C730.857 364.735 730.983 365.351 731.237 365.713C731.527 366.04 732.015 366.238 732.703 366.31V373.533L730.584 373.859C730.004 373.932 729.48 373.967 729.009 373.967C727.488 373.967 726.275 373.66 725.371 373.044C724.466 372.392 723.905 371.488 723.687 370.33L723.524 368.591C722.221 370.474 720.591 371.868 718.636 372.773C716.718 373.642 714.562 374.076 712.173 374.076C709.277 374.076 707.067 373.153 705.548 371.307C704.028 369.461 703.269 366.782 703.269 363.269ZM754.153 374.076C751.98 374.076 750.08 373.624 748.451 372.719C746.822 371.777 745.536 370.474 744.596 368.809V373.533H737.046V333.889H745.735V349.692C746.676 348.027 747.926 346.742 749.482 345.836C751.075 344.931 752.94 344.479 755.075 344.479C756.886 344.479 758.533 344.876 760.017 345.673C761.538 346.434 762.841 347.501 763.927 348.878C765.049 350.218 765.919 351.791 766.535 353.602C767.15 355.376 767.458 357.314 767.458 359.413C767.458 361.477 767.113 363.395 766.426 365.169C765.773 366.943 764.85 368.501 763.656 369.841C762.462 371.181 761.049 372.23 759.421 372.99C757.828 373.714 756.072 374.076 754.153 374.076ZM751.709 366.745C752.687 366.745 753.592 366.564 754.424 366.201C755.293 365.804 756.035 365.278 756.65 364.626C757.265 363.974 757.737 363.214 758.062 362.346C758.387 361.44 758.551 360.463 758.551 359.413C758.561 358.119 758.283 356.839 757.737 355.666C757.193 354.508 756.434 353.585 755.456 352.897C754.515 352.208 753.411 351.865 752.144 351.865C751.234 351.866 750.339 352.089 749.536 352.516C748.703 352.95 747.961 353.548 747.31 354.309C746.658 355.032 746.134 355.865 745.735 356.806V362.78C746.02 363.388 746.385 363.954 746.822 364.464C747.24 364.921 747.714 365.322 748.233 365.658C748.777 365.985 749.338 366.256 749.918 366.474C750.533 366.655 751.131 366.745 751.709 366.745ZM784.873 374.076C782.446 374.076 780.293 373.697 778.41 372.935C776.527 372.139 774.916 371.072 773.576 369.732C772.283 368.407 771.267 366.838 770.589 365.115C769.902 363.341 769.557 361.495 769.557 359.576C769.557 356.825 770.155 354.327 771.349 352.081C772.58 349.801 774.336 347.972 776.616 346.596C778.897 345.184 781.648 344.479 784.871 344.479C788.094 344.479 790.826 345.166 793.071 346.543C795.352 347.918 797.089 349.729 798.285 351.972C799.48 354.182 800.076 356.589 800.076 359.197C800.076 359.705 800.04 360.213 799.969 360.716L799.86 361.966H778.791C778.9 363.233 779.243 364.301 779.823 365.169C780.421 366.024 781.224 366.715 782.158 367.179C783.099 367.613 784.095 367.831 785.145 367.831C786.417 367.839 787.67 367.522 788.784 366.908C789.943 366.293 790.739 365.459 791.174 364.41L798.558 366.474C797.836 367.958 796.803 369.28 795.464 370.439C794.159 371.56 792.603 372.447 790.792 373.099C789.018 373.751 787.046 374.076 784.873 374.076ZM778.573 356.644H790.956C790.812 355.448 790.467 354.416 789.924 353.548C789.381 352.642 788.656 351.955 787.752 351.484C786.847 350.977 785.852 350.724 784.765 350.724C783.643 350.724 782.629 350.977 781.724 351.484C780.855 351.955 780.148 352.642 779.605 353.548C779.062 354.416 778.719 355.448 778.573 356.644ZM827.479 345.077C827.225 344.822 826.754 344.479 826.067 344.045C825.415 343.61 824.601 343.194 823.623 342.795C822.682 342.397 821.65 342.053 820.527 341.763C819.405 341.437 818.264 341.274 817.105 341.274C815.078 341.274 813.54 341.655 812.49 342.415C811.476 343.174 810.969 344.243 810.969 345.618C810.969 346.67 811.295 347.501 811.947 348.117C812.599 348.732 813.577 349.258 814.879 349.692L819.767 351.104C822.301 351.719 824.492 352.48 826.338 353.386C828.221 354.254 829.652 355.413 830.629 356.86C831.642 358.272 832.15 360.155 832.15 362.509C832.15 364.573 831.769 366.347 831.009 367.831C830.272 369.254 829.188 370.468 827.859 371.362C826.519 372.266 824.999 372.935 823.298 373.37C821.596 373.769 819.785 373.967 817.867 373.967C815.948 373.967 814.028 373.769 812.11 373.37C810.216 372.98 808.361 372.417 806.57 371.687C804.796 370.926 803.166 370.022 801.682 368.972L804.995 362.509C805.322 362.835 805.9 363.269 806.734 363.812C807.565 364.319 808.58 364.844 809.774 365.387C810.969 365.894 812.272 366.328 813.684 366.69C815.096 367.052 816.527 367.234 817.976 367.234C820.003 367.234 821.541 366.889 822.591 366.201C823.641 365.514 824.166 364.536 824.166 363.269C824.166 362.11 823.75 361.205 822.916 360.554C822.083 359.903 820.926 359.341 819.442 358.87L814.173 357.242C811.748 356.553 809.721 355.793 808.091 354.96C806.461 354.091 805.248 353.004 804.452 351.702C803.655 350.399 803.258 348.769 803.258 346.814C803.258 344.171 803.873 341.963 805.104 340.189C806.371 338.378 808.073 337.021 810.21 336.115C812.346 335.174 814.716 334.703 817.323 334.703C819.134 334.703 820.835 334.902 822.428 335.301C824.057 335.699 825.578 336.224 826.99 336.875C828.402 337.526 829.669 338.234 830.791 338.993L827.479 345.077ZM854.703 372.012L852.041 372.99C851.101 373.317 850.104 373.57 849.054 373.751C848.004 373.967 846.972 374.076 845.96 374.076C844.511 374.076 843.171 373.841 841.94 373.37C840.745 372.863 839.786 372.049 839.062 370.926C838.373 369.804 838.03 368.32 838.03 366.474V351.593H834.391V345.022H838.03V335.952H846.719V345.022H852.53V351.593H846.719V363.487C846.719 364.427 846.955 365.115 847.426 365.551C847.895 365.948 848.493 366.147 849.218 366.147C849.833 366.147 850.485 366.04 851.173 365.822C851.897 365.604 852.512 365.37 853.019 365.115L854.703 372.012ZM855.753 365.008C855.753 363.125 856.278 361.477 857.328 360.065C858.378 358.653 859.826 357.549 861.673 356.753C863.519 355.919 865.637 355.503 868.027 355.503C869.185 355.503 870.326 355.612 871.448 355.828C872.57 356.009 873.548 356.282 874.381 356.644V355.394C874.381 353.838 873.91 352.642 872.969 351.811C872.028 350.979 870.597 350.561 868.679 350.561C867.086 350.561 865.583 350.833 864.171 351.376C862.794 351.919 861.328 352.697 859.772 353.711L857.165 348.171C859.048 346.94 861.003 346.017 863.03 345.402C865.094 344.787 867.267 344.479 869.547 344.479C873.82 344.479 877.132 345.511 879.485 347.573C881.876 349.602 883.07 352.553 883.07 356.426V363.867C883.07 364.735 883.196 365.351 883.45 365.713C883.74 366.04 884.228 366.238 884.916 366.31V373.533L882.853 373.859C882.237 373.932 881.695 373.967 881.224 373.967C879.594 373.967 878.345 373.642 877.477 372.99C876.644 372.339 876.118 371.451 875.902 370.33L875.738 369.08C874.527 370.663 872.966 371.946 871.177 372.828C869.467 373.654 867.591 374.08 865.692 374.076C863.809 374.076 862.107 373.679 860.586 372.881C859.102 372.084 857.926 370.999 857.057 369.623C856.189 368.246 855.753 366.708 855.753 365.008ZM873.023 366.093C873.421 365.767 873.748 365.405 874.001 365.008C874.254 364.61 874.381 364.229 874.381 363.867V361.314C873.656 361.024 872.842 360.807 871.937 360.663C871.068 360.482 870.253 360.391 869.493 360.391C867.9 360.391 866.578 360.753 865.528 361.477C864.479 362.165 863.953 363.088 863.953 364.246C863.949 364.885 864.138 365.51 864.496 366.04C864.868 366.59 865.372 367.039 865.963 367.342C866.615 367.668 867.374 367.831 868.245 367.831C869.115 367.831 869.982 367.668 870.85 367.342C871.719 367.017 872.443 366.6 873.023 366.093ZM899.74 374.076C897.314 374.076 894.942 373.679 892.625 372.881C890.307 372.083 888.352 370.908 886.759 369.352L889.746 363.867C891.485 365.134 893.168 366.093 894.798 366.745C896.463 367.397 898.019 367.722 899.467 367.722C900.589 367.722 901.459 367.541 902.075 367.179C902.69 366.817 902.998 366.256 902.998 365.496C902.998 364.953 902.817 364.536 902.455 364.246C902.092 363.921 901.531 363.631 900.77 363.378L898.056 362.564L892.625 360.445C891.176 359.758 890.091 358.924 889.367 357.947C888.642 356.934 888.28 355.629 888.28 354.037C888.28 352.118 888.751 350.453 889.692 349.04C890.669 347.593 892.046 346.469 893.82 345.673C895.594 344.876 897.711 344.479 900.174 344.479C902.112 344.476 904.038 344.788 905.876 345.402C907.759 346.017 909.515 347.049 911.144 348.498L907.777 353.928C906.147 352.806 904.7 351.992 903.432 351.484C902.165 350.976 900.934 350.724 899.74 350.724C899.124 350.724 898.562 350.796 898.056 350.942C897.575 351.07 897.142 351.334 896.807 351.702C896.517 352.027 896.371 352.461 896.371 353.004C896.371 353.548 896.517 353.982 896.807 354.309C897.132 354.634 897.621 354.924 898.273 355.178L900.825 355.992C903.179 356.679 905.134 357.386 906.69 358.11C908.248 358.798 909.406 359.666 910.166 360.716C910.963 361.73 911.362 363.088 911.362 364.79C911.362 367.685 910.312 369.967 908.211 371.633C906.147 373.262 903.323 374.076 899.74 374.076ZM942.755 373.533H934.066V357.512C934.066 355.666 933.685 354.309 932.925 353.439C932.201 352.57 931.223 352.136 929.992 352.136C929.34 352.136 928.598 352.354 927.767 352.788C926.97 353.186 926.227 353.766 925.539 354.525C924.852 355.285 924.326 356.173 923.964 357.187V373.533H915.275V333.889H923.964V349.801C925.015 348.099 926.39 346.796 928.092 345.891C929.829 344.948 931.73 344.479 933.794 344.479C935.749 344.479 937.306 344.804 938.465 345.456C939.659 346.107 940.565 346.977 941.18 348.062C941.803 349.136 942.227 350.313 942.43 351.538C942.646 352.806 942.755 354.054 942.755 355.286V373.533Z" fill="#431BB1"/>
<path d="M514.701 167.042V360.36" stroke="#6C6FB4" stroke-width="20" stroke-linecap="round" stroke-linejoin="round"/>
<path d="M418.043 263.701H611.361" stroke="#6C6FB4" stroke-width="20" stroke-linecap="round" stroke-linejoin="round"/>
</svg>
