<svg version="1.1" viewBox="0.0 0.0 960.0 540.0" fill="none" stroke="none" stroke-linecap="square" stroke-miterlimit="10" xmlns:xlink="http://www.w3.org/1999/xlink" xmlns="http://www.w3.org/2000/svg"><clipPath id="p.0"><path d="m0 0l960.0 0l0 540.0l-960.0 0l0 -540.0z" clip-rule="nonzero"/></clipPath><g clip-path="url(#p.0)"><path fill="#ffffff" d="m0 0l960.0 0l0 540.0l-960.0 0z" fill-rule="evenodd"/><path fill="#eeecac" d="m576.67456 145.9203l0 0c0 -9.723892 7.8827515 -17.606659 17.606628 -17.606659l220.78668 0c4.6696167 0 9.147888 1.8549805 12.449829 5.1568756c3.30188 3.30188 5.1568604 7.7802124 5.1568604 12.449783l0 70.424484c0 9.723892 -7.8828125 17.606659 -17.60669 17.606659l-220.78668 0c-9.723877 0 -17.606628 -7.8827667 -17.606628 -17.606659z" fill-rule="evenodd"/><path stroke="#595959" stroke-width="1.0" stroke-linejoin="round" stroke-linecap="butt" d="m576.67456 145.9203l0 0c0 -9.723892 7.8827515 -17.606659 17.606628 -17.606659l220.78668 0c4.6696167 0 9.147888 1.8549805 12.449829 5.1568756c3.30188 3.30188 5.1568604 7.7802124 5.1568604 12.449783l0 70.424484c0 9.723892 -7.8828125 17.606659 -17.60669 17.606659l-220.78668 0c-9.723877 0 -17.606628 -7.8827667 -17.606628 -17.606659z" fill-rule="evenodd"/><path fill="#b6d7a8" d="m576.67456 323.6552l0 0c0 -9.723877 7.8827515 -17.606659 17.606628 -17.606659l220.78668 0c4.6696167 0 9.147888 1.8549805 12.449829 5.1568604c3.30188 3.3019104 5.1568604 7.7802124 5.1568604 12.449799l0 70.4245c0 9.723877 -7.8828125 17.606628 -17.60669 17.606628l-220.78668 0c-9.723877 0 -17.606628 -7.8827515 -17.606628 -17.606628z" fill-rule="evenodd"/><path stroke="#595959" stroke-width="1.0" stroke-linejoin="round" stroke-linecap="butt" d="m576.67456 323.6552l0 0c0 -9.723877 7.8827515 -17.606659 17.606628 -17.606659l220.78668 0c4.6696167 0 9.147888 1.8549805 12.449829 5.1568604c3.30188 3.3019104 5.1568604 7.7802124 5.1568604 12.449799l0 70.4245c0 9.723877 -7.8828125 17.606628 -17.60669 17.606628l-220.78668 0c-9.723877 0 -17.606628 -7.8827515 -17.606628 -17.606628z" fill-rule="evenodd"/><path fill="#b7b7b7" d="m606.74805 163.97507l0 0c0 1.8090515 5.866089 3.275589 13.102356 3.275589c7.236206 0 13.102356 -1.4665375 13.102356 -3.275589l0 32.0c0 1.8090515 -5.86615 3.275589 -13.102356 3.275589c-7.236267 0 -13.102356 -1.4665375 -13.102356 -3.275589z" fill-rule="evenodd"/><path fill="#d3d3d3" d="m606.74805 163.97507l0 0c0 -1.8090668 5.866089 -3.275589 13.102356 -3.275589c7.236206 0 13.102356 1.4665222 13.102356 3.275589l0 0c0 1.8090515 -5.86615 3.275589 -13.102356 3.275589c-7.236267 0 -13.102356 -1.4665375 -13.102356 -3.275589z" fill-rule="evenodd"/><path fill="#000000" fill-opacity="0.0" d="m632.95276 163.97507l0 0c0 1.8090515 -5.86615 3.275589 -13.102356 3.275589c-7.236267 0 -13.102356 -1.4665375 -13.102356 -3.275589l0 0c0 -1.8090668 5.866089 -3.275589 13.102356 -3.275589c7.236206 0 13.102356 1.4665222 13.102356 3.275589l0 32.0c0 1.8090515 -5.86615 3.275589 -13.102356 3.275589c-7.236267 0 -13.102356 -1.4665375 -13.102356 -3.275589l0 -32.0" fill-rule="evenodd"/><path stroke="#595959" stroke-width="1.0" stroke-linejoin="round" stroke-linecap="butt" d="m632.95276 163.97507l0 0c0 1.8090515 -5.86615 3.275589 -13.102356 3.275589c-7.236267 0 -13.102356 -1.4665375 -13.102356 -3.275589l0 0c0 -1.8090668 5.866089 -3.275589 13.102356 -3.275589c7.236206 0 13.102356 1.4665222 13.102356 3.275589l0 32.0c0 1.8090515 -5.86615 3.275589 -13.102356 3.275589c-7.236267 0 -13.102356 -1.4665375 -13.102356 -3.275589l0 -32.0" fill-rule="evenodd"/><path fill="#b7b7b7" d="m691.5722 165.13255l0 0c0 1.8090515 5.866089 3.275589 13.102356 3.275589c7.236206 0 13.102356 -1.4665375 13.102356 -3.275589l0 32.0c0 1.8090515 -5.86615 3.275589 -13.102356 3.275589c-7.236267 0 -13.102356 -1.4665375 -13.102356 -3.275589z" fill-rule="evenodd"/><path fill="#d3d3d3" d="m691.5722 165.13255l0 0c0 -1.8090668 5.866089 -3.2756042 13.102356 -3.2756042c7.236206 0 13.102356 1.4665375 13.102356 3.2756042l0 0c0 1.8090515 -5.86615 3.275589 -13.102356 3.275589c-7.236267 0 -13.102356 -1.4665375 -13.102356 -3.275589z" fill-rule="evenodd"/><path fill="#000000" fill-opacity="0.0" d="m717.7769 165.13255l0 0c0 1.8090515 -5.86615 3.275589 -13.102356 3.275589c-7.236267 0 -13.102356 -1.4665375 -13.102356 -3.275589l0 0c0 -1.8090668 5.866089 -3.2756042 13.102356 -3.2756042c7.236206 0 13.102356 1.4665375 13.102356 3.2756042l0 32.0c0 1.8090515 -5.86615 3.275589 -13.102356 3.275589c-7.236267 0 -13.102356 -1.4665375 -13.102356 -3.275589l0 -32.0" fill-rule="evenodd"/><path stroke="#595959" stroke-width="1.0" stroke-linejoin="round" stroke-linecap="butt" d="m717.7769 165.13255l0 0c0 1.8090515 -5.86615 3.275589 -13.102356 3.275589c-7.236267 0 -13.102356 -1.4665375 -13.102356 -3.275589l0 0c0 -1.8090668 5.866089 -3.2756042 13.102356 -3.2756042c7.236206 0 13.102356 1.4665375 13.102356 3.2756042l0 32.0c0 1.8090515 -5.86615 3.275589 -13.102356 3.275589c-7.236267 0 -13.102356 -1.4665375 -13.102356 -3.275589l0 -32.0" fill-rule="evenodd"/><path fill="#b7b7b7" d="m776.3963 163.97507l0 0c0 1.8090515 5.86615 3.275589 13.102356 3.275589c7.236267 0 13.102417 -1.4665375 13.102417 -3.275589l0 32.0c0 1.8090515 -5.86615 3.275589 -13.102417 3.275589c-7.236206 0 -13.102356 -1.4665375 -13.102356 -3.275589z" fill-rule="evenodd"/><path fill="#d3d3d3" d="m776.3963 163.97507l0 0c0 -1.8090668 5.86615 -3.275589 13.102356 -3.275589c7.236267 0 13.102417 1.4665222 13.102417 3.275589l0 0c0 1.8090515 -5.86615 3.275589 -13.102417 3.275589c-7.236206 0 -13.102356 -1.4665375 -13.102356 -3.275589z" fill-rule="evenodd"/><path fill="#000000" fill-opacity="0.0" d="m802.6011 163.97507l0 0c0 1.8090515 -5.86615 3.275589 -13.102417 3.275589c-7.236206 0 -13.102356 -1.4665375 -13.102356 -3.275589l0 0c0 -1.8090668 5.86615 -3.275589 13.102356 -3.275589c7.236267 0 13.102417 1.4665222 13.102417 3.275589l0 32.0c0 1.8090515 -5.86615 3.275589 -13.102417 3.275589c-7.236206 0 -13.102356 -1.4665375 -13.102356 -3.275589l0 -32.0" fill-rule="evenodd"/><path stroke="#595959" stroke-width="1.0" stroke-linejoin="round" stroke-linecap="butt" d="m802.6011 163.97507l0 0c0 1.8090515 -5.86615 3.275589 -13.102417 3.275589c-7.236206 0 -13.102356 -1.4665375 -13.102356 -3.275589l0 0c0 -1.8090668 5.86615 -3.275589 13.102356 -3.275589c7.236267 0 13.102417 1.4665222 13.102417 3.275589l0 32.0c0 1.8090515 -5.86615 3.275589 -13.102417 3.275589c-7.236206 0 -13.102356 -1.4665375 -13.102356 -3.275589l0 -32.0" fill-rule="evenodd"/><path fill="#b7b7b7" d="m606.74805 342.28873l0 0c0 1.8090515 5.866089 3.2755737 13.102356 3.2755737c7.236206 0 13.102356 -1.4665222 13.102356 -3.2755737l0 32.0c0 1.8090515 -5.86615 3.2755737 -13.102356 3.2755737c-7.236267 0 -13.102356 -1.4665222 -13.102356 -3.2755737z" fill-rule="evenodd"/><path fill="#d3d3d3" d="m606.74805 342.28873l0 0c0 -1.809082 5.866089 -3.2756042 13.102356 -3.2756042c7.236206 0 13.102356 1.4665222 13.102356 3.2756042l0 0c0 1.8090515 -5.86615 3.2755737 -13.102356 3.2755737c-7.236267 0 -13.102356 -1.4665222 -13.102356 -3.2755737z" fill-rule="evenodd"/><path fill="#000000" fill-opacity="0.0" d="m632.95276 342.28873l0 0c0 1.8090515 -5.86615 3.2755737 -13.102356 3.2755737c-7.236267 0 -13.102356 -1.4665222 -13.102356 -3.2755737l0 0c0 -1.809082 5.866089 -3.2756042 13.102356 -3.2756042c7.236206 0 13.102356 1.4665222 13.102356 3.2756042l0 32.0c0 1.8090515 -5.86615 3.2755737 -13.102356 3.2755737c-7.236267 0 -13.102356 -1.4665222 -13.102356 -3.2755737l0 -32.0" fill-rule="evenodd"/><path stroke="#595959" stroke-width="1.0" stroke-linejoin="round" stroke-linecap="butt" d="m632.95276 342.28873l0 0c0 1.8090515 -5.86615 3.2755737 -13.102356 3.2755737c-7.236267 0 -13.102356 -1.4665222 -13.102356 -3.2755737l0 0c0 -1.809082 5.866089 -3.2756042 13.102356 -3.2756042c7.236206 0 13.102356 1.4665222 13.102356 3.2756042l0 32.0c0 1.8090515 -5.86615 3.2755737 -13.102356 3.2755737c-7.236267 0 -13.102356 -1.4665222 -13.102356 -3.2755737l0 -32.0" fill-rule="evenodd"/><path fill="#b7b7b7" d="m691.5722 343.4462l0 0c0 1.8090515 5.866089 3.2755737 13.102356 3.2755737c7.236206 0 13.102356 -1.4665222 13.102356 -3.2755737l0 32.0c0 1.8090515 -5.86615 3.2755737 -13.102356 3.2755737c-7.236267 0 -13.102356 -1.4665222 -13.102356 -3.2755737z" fill-rule="evenodd"/><path fill="#d3d3d3" d="m691.5722 343.4462l0 0c0 -1.8090515 5.866089 -3.2756042 13.102356 -3.2756042c7.236206 0 13.102356 1.4665527 13.102356 3.2756042l0 0c0 1.8090515 -5.86615 3.2755737 -13.102356 3.2755737c-7.236267 0 -13.102356 -1.4665222 -13.102356 -3.2755737z" fill-rule="evenodd"/><path fill="#000000" fill-opacity="0.0" d="m717.7769 343.4462l0 0c0 1.8090515 -5.86615 3.2755737 -13.102356 3.2755737c-7.236267 0 -13.102356 -1.4665222 -13.102356 -3.2755737l0 0c0 -1.8090515 5.866089 -3.2756042 13.102356 -3.2756042c7.236206 0 13.102356 1.4665527 13.102356 3.2756042l0 32.0c0 1.8090515 -5.86615 3.2755737 -13.102356 3.2755737c-7.236267 0 -13.102356 -1.4665222 -13.102356 -3.2755737l0 -32.0" fill-rule="evenodd"/><path stroke="#595959" stroke-width="1.0" stroke-linejoin="round" stroke-linecap="butt" d="m717.7769 343.4462l0 0c0 1.8090515 -5.86615 3.2755737 -13.102356 3.2755737c-7.236267 0 -13.102356 -1.4665222 -13.102356 -3.2755737l0 0c0 -1.8090515 5.866089 -3.2756042 13.102356 -3.2756042c7.236206 0 13.102356 1.4665527 13.102356 3.2756042l0 32.0c0 1.8090515 -5.86615 3.2755737 -13.102356 3.2755737c-7.236267 0 -13.102356 -1.4665222 -13.102356 -3.2755737l0 -32.0" fill-rule="evenodd"/><path fill="#b7b7b7" d="m776.3963 342.28873l0 0c0 1.8090515 5.86615 3.2755737 13.102356 3.2755737c7.236267 0 13.102417 -1.4665222 13.102417 -3.2755737l0 32.0c0 1.8090515 -5.86615 3.2755737 -13.102417 3.2755737c-7.236206 0 -13.102356 -1.4665222 -13.102356 -3.2755737z" fill-rule="evenodd"/><path fill="#d3d3d3" d="m776.3963 342.28873l0 0c0 -1.809082 5.86615 -3.2756042 13.102356 -3.2756042c7.236267 0 13.102417 1.4665222 13.102417 3.2756042l0 0c0 1.8090515 -5.86615 3.2755737 -13.102417 3.2755737c-7.236206 0 -13.102356 -1.4665222 -13.102356 -3.2755737z" fill-rule="evenodd"/><path fill="#000000" fill-opacity="0.0" d="m802.6011 342.28873l0 0c0 1.8090515 -5.86615 3.2755737 -13.102417 3.2755737c-7.236206 0 -13.102356 -1.4665222 -13.102356 -3.2755737l0 0c0 -1.809082 5.86615 -3.2756042 13.102356 -3.2756042c7.236267 0 13.102417 1.4665222 13.102417 3.2756042l0 32.0c0 1.8090515 -5.86615 3.2755737 -13.102417 3.2755737c-7.236206 0 -13.102356 -1.4665222 -13.102356 -3.2755737l0 -32.0" fill-rule="evenodd"/><path stroke="#595959" stroke-width="1.0" stroke-linejoin="round" stroke-linecap="butt" d="m802.6011 342.28873l0 0c0 1.8090515 -5.86615 3.2755737 -13.102417 3.2755737c-7.236206 0 -13.102356 -1.4665222 -13.102356 -3.2755737l0 0c0 -1.809082 5.86615 -3.2756042 13.102356 -3.2756042c7.236267 0 13.102417 1.4665222 13.102417 3.2756042l0 32.0c0 1.8090515 -5.86615 3.2755737 -13.102417 3.2755737c-7.236206 0 -13.102356 -1.4665222 -13.102356 -3.2755737l0 -32.0" fill-rule="evenodd"/><path fill="#cfe2f3" d="m351.71127 252.00674l0 0c0 -4.969208 4.028351 -8.997559 8.997559 -8.997559l113.09152 0c2.3862915 0 4.6748657 0.9479523 6.362213 2.6353302c1.6873779 1.6873627 2.6353455 3.9759216 2.6353455 6.3622284l0 35.989136c0 4.969208 -4.028351 8.997559 -8.997559 8.997559l-113.09152 0l0 0c-4.969208 0 -8.997559 -4.028351 -8.997559 -8.997559z" fill-rule="evenodd"/><path stroke="#595959" stroke-width="1.0" stroke-linejoin="round" stroke-linecap="butt" d="m351.71127 252.00674l0 0c0 -4.969208 4.028351 -8.997559 8.997559 -8.997559l113.09152 0c2.3862915 0 4.6748657 0.9479523 6.362213 2.6353302c1.6873779 1.6873627 2.6353455 3.9759216 2.6353455 6.3622284l0 35.989136c0 4.969208 -4.028351 8.997559 -8.997559 8.997559l-113.09152 0l0 0c-4.969208 0 -8.997559 -4.028351 -8.997559 -8.997559z" fill-rule="evenodd"/><path fill="#000000" d="m376.18262 276.9213l0 -13.359375l5.046875 0q1.328125 0 2.03125 0.125q0.96875 0.171875 1.640625 0.640625q0.671875 0.453125 1.078125 1.28125q0.40625 0.828125 0.40625 1.828125q0 1.703125 -1.09375 2.890625q-1.078125 1.171875 -3.921875 1.171875l-3.421875 0l0 5.421875l-1.765625 0zm1.765625 -7.0l3.453125 0q1.71875 0 2.4375 -0.640625q0.71875 -0.640625 0.71875 -1.796875q0 -0.84375 -0.421875 -1.4375q-0.421875 -0.59375 -1.125 -0.78125q-0.4375 -0.125 -1.640625 -0.125l-3.421875 0l0 4.78125zm10.459198 7.0l0 -9.671875l1.46875 0l0 1.46875q0.5625 -1.03125 1.03125 -1.359375q0.484375 -0.328125 1.0625 -0.328125q0.828125 0 1.6875 0.53125l-0.5625 1.515625q-0.609375 -0.359375 -1.203125 -0.359375q-0.546875 0 -0.96875 0.328125q-0.421875 0.328125 -0.609375 0.890625q-0.28125 0.875 -0.28125 1.921875l0 5.0625l-1.625 0zm5.618927 -4.84375q0 -2.6875 1.484375 -3.96875q1.25 -1.078125 3.046875 -1.078125q2.0 0 3.265625 1.3125q1.265625 1.296875 1.265625 3.609375q0 1.859375 -0.5625 2.9375q-0.5625 1.0625 -1.640625 1.65625q-1.0625 0.59375 -2.328125 0.59375q-2.03125 0 -3.28125 -1.296875q-1.25 -1.3125 -1.25 -3.765625zm1.6875 0q0 1.859375 0.796875 2.796875q0.8125 0.921875 2.046875 0.921875q1.21875 0 2.03125 -0.921875q0.8125 -0.9375 0.8125 -2.84375q0 -1.796875 -0.8125 -2.71875q-0.8125 -0.921875 -2.03125 -0.921875q-1.234375 0 -2.046875 0.921875q-0.796875 0.90625 -0.796875 2.765625zm8.203857 4.84375l3.53125 -5.03125l-3.265625 -4.640625l2.046875 0l1.484375 2.265625q0.421875 0.640625 0.671875 1.078125q0.40625 -0.59375 0.734375 -1.0625l1.640625 -2.28125l1.953125 0l-3.34375 4.546875l3.59375 5.125l-2.015625 0l-1.984375 -3.0l-0.515625 -0.8125l-2.546875 3.8125l-1.984375 0zm10.34375 3.71875l-0.1875 -1.53125q0.546875 0.140625 0.9375 0.140625q0.546875 0 0.875 -0.1875q0.328125 -0.171875 0.546875 -0.5q0.15625 -0.25 0.5 -1.21875q0.046875 -0.140625 0.140625 -0.40625l-3.671875 -9.6875l1.765625 0l2.015625 5.59375q0.390625 1.078125 0.703125 2.25q0.28125 -1.125 0.671875 -2.203125l2.078125 -5.640625l1.640625 0l-3.6875 9.828125q-0.59375 1.609375 -0.921875 2.203125q-0.4375 0.8125 -1.0 1.1875q-0.5625 0.375 -1.34375 0.375q-0.484375 0 -1.0625 -0.203125zm9.015625 -8.015625l1.65625 -0.140625q0.125 1.0 0.546875 1.640625q0.4375 0.640625 1.34375 1.046875q0.921875 0.390625 2.0625 0.390625q1.0 0 1.78125 -0.296875q0.78125 -0.296875 1.15625 -0.8125q0.375 -0.53125 0.375 -1.15625q0 -0.625 -0.375 -1.09375q-0.359375 -0.46875 -1.1875 -0.796875q-0.546875 -0.203125 -2.390625 -0.640625q-1.828125 -0.453125 -2.5625 -0.84375q-0.96875 -0.5 -1.4375 -1.234375q-0.46875 -0.75 -0.46875 -1.671875q0 -1.0 0.578125 -1.875q0.578125 -0.890625 1.671875 -1.34375q1.109375 -0.453125 2.453125 -0.453125q1.484375 0 2.609375 0.484375q1.140625 0.46875 1.75 1.40625q0.609375 0.921875 0.65625 2.09375l-1.6875 0.125q-0.140625 -1.265625 -0.9375 -1.90625q-0.78125 -0.65625 -2.3125 -0.65625q-1.609375 0 -2.34375 0.59375q-0.734375 0.59375 -0.734375 1.421875q0 0.71875 0.53125 1.171875q0.5 0.46875 2.65625 0.96875q2.15625 0.484375 2.953125 0.84375q1.171875 0.53125 1.71875 1.359375q0.5625 0.828125 0.5625 1.90625q0 1.0625 -0.609375 2.015625q-0.609375 0.9375 -1.75 1.46875q-1.140625 0.515625 -2.578125 0.515625q-1.8125 0 -3.046875 -0.53125q-1.21875 -0.53125 -1.921875 -1.59375q-0.6875 -1.0625 -0.71875 -2.40625zm23.162323 2.859375q1.234375 0.859375 2.265625 1.25l-0.515625 1.21875q-1.4375 -0.515625 -2.875 -1.625q-1.484375 0.828125 -3.28125 0.828125q-1.8125 0 -3.296875 -0.875q-1.46875 -0.875 -2.265625 -2.453125q-0.796875 -1.59375 -0.796875 -3.578125q0 -1.984375 0.796875 -3.59375q0.8125 -1.625 2.28125 -2.46875q1.484375 -0.859375 3.328125 -0.859375q1.84375 0 3.328125 0.890625q1.484375 0.875 2.265625 2.453125q0.78125 1.578125 0.78125 3.5625q0 1.65625 -0.5 2.96875q-0.5 1.3125 -1.515625 2.28125zm-3.890625 -2.25q1.53125 0.421875 2.515625 1.28125q1.5625 -1.421875 1.5625 -4.28125q0 -1.625 -0.546875 -2.828125q-0.546875 -1.21875 -1.609375 -1.875q-1.0625 -0.671875 -2.390625 -0.671875q-1.96875 0 -3.28125 1.359375q-1.296875 1.34375 -1.296875 4.03125q0 2.59375 1.28125 4.0q1.296875 1.390625 3.296875 1.390625q0.953125 0 1.78125 -0.359375q-0.828125 -0.53125 -1.75 -0.765625l0.4375 -1.28125zm8.198914 3.6875l0 -13.359375l1.78125 0l0 11.78125l6.5625 0l0 1.578125l-8.34375 0z" fill-rule="nonzero"/><path fill="#000000" fill-opacity="0.0" d="m417.2546 243.00919l0 -61.88977l159.43307 0" fill-rule="evenodd"/><path stroke="#595959" stroke-width="1.0" stroke-linejoin="round" stroke-linecap="butt" d="m417.2546 243.00919l0 -61.88977l153.43307 0" fill-rule="evenodd"/><path fill="#595959" stroke="#595959" stroke-width="1.0" stroke-linecap="butt" d="m570.6877 182.77115l4.538086 -1.6517334l-4.538086 -1.6517181z" fill-rule="evenodd"/><path fill="#000000" fill-opacity="0.0" d="m417.2546 296.99344l0 61.88977l159.43307 0" fill-rule="evenodd"/><path stroke="#595959" stroke-width="1.0" stroke-linejoin="round" stroke-linecap="butt" d="m417.2546 296.99344l0 61.88977l153.43307 0" fill-rule="evenodd"/><path fill="#595959" stroke="#595959" stroke-width="1.0" stroke-linecap="butt" d="m570.6877 360.53494l4.538086 -1.6517334l-4.538086 -1.6517334z" fill-rule="evenodd"/><path fill="#000000" fill-opacity="0.0" d="m127.32546 134.80853l0 0c0 -3.5486145 2.8767166 -6.4253235 6.425316 -6.4253235l46.51944 0c1.7041016 0 3.3384094 0.6769409 4.5433807 1.8819275c1.2049866 1.2049866 1.8819427 2.8392944 1.8819427 4.543396l0 25.700531c0 3.5485992 -2.8767242 6.4253235 -6.4253235 6.4253235l-46.51944 0c-3.5485992 0 -6.425316 -2.8767242 -6.425316 -6.4253235z" fill-rule="evenodd"/><path stroke="#595959" stroke-width="1.0" stroke-linejoin="round" stroke-linecap="butt" d="m127.32546 134.80853l0 0c0 -3.5486145 2.8767166 -6.4253235 6.425316 -6.4253235l46.51944 0c1.7041016 0 3.3384094 0.6769409 4.5433807 1.8819275c1.2049866 1.2049866 1.8819427 2.8392944 1.8819427 4.543396l0 25.700531c0 3.5485992 -2.8767242 6.4253235 -6.4253235 6.4253235l-46.51944 0c-3.5485992 0 -6.425316 -2.8767242 -6.425316 -6.4253235z" fill-rule="evenodd"/><path fill="#000000" d="m153.92673 167.86879l0 0c0 -0.5160675 0.41835022 -0.93440247 0.93440247 -0.93440247l3.737503 0l0 0c0.247818 0 0.4854889 0.09843445 0.6607208 0.27368164c0.17523193 0.17523193 0.27368164 0.41290283 0.27368164 0.6607208l0 20.682373c0 0.51605225 -0.41835022 0.93440247 -0.93440247 0.93440247l-3.737503 0c-0.51605225 0 -0.93440247 -0.41835022 -0.93440247 -0.93440247z" fill-rule="evenodd"/><path stroke="#595959" stroke-width="1.0" stroke-linejoin="round" stroke-linecap="butt" d="m153.92673 167.86879l0 0c0 -0.5160675 0.41835022 -0.93440247 0.93440247 -0.93440247l3.737503 0l0 0c0.247818 0 0.4854889 0.09843445 0.6607208 0.27368164c0.17523193 0.17523193 0.27368164 0.41290283 0.27368164 0.6607208l0 20.682373c0 0.51605225 -0.41835022 0.93440247 -0.93440247 0.93440247l-3.737503 0c-0.51605225 0 -0.93440247 -0.41835022 -0.93440247 -0.93440247z" fill-rule="evenodd"/><path fill="#000000" fill-opacity="0.0" d="m147.3727 190.15074l19.275604 0.22047424" fill-rule="evenodd"/><path stroke="#595959" stroke-width="3.0" stroke-linejoin="round" stroke-linecap="butt" d="m147.3727 190.15074l19.275604 0.22047424" fill-rule="evenodd"/><path fill="#666666" d="m197.49344 111.39904l0 0c0 -2.4121323 1.9554138 -4.367546 4.3675385 -4.367546l17.46965 0l0 0c1.1583405 0 2.2692413 0.46015167 3.0883179 1.2792282c0.8190613 0.8190689 1.2792206 1.9299698 1.2792206 3.0883179l0 74.60349c0 2.4121246 -1.9554138 4.3675385 -4.3675385 4.3675385l-17.46965 0c-2.4121246 0 -4.3675385 -1.9554138 -4.3675385 -4.3675385z" fill-rule="evenodd"/><path stroke="#595959" stroke-width="1.0" stroke-linejoin="round" stroke-linecap="butt" d="m197.49344 111.39904l0 0c0 -2.4121323 1.9554138 -4.367546 4.3675385 -4.367546l17.46965 0l0 0c1.1583405 0 2.2692413 0.46015167 3.0883179 1.2792282c0.8190613 0.8190689 1.2792206 1.9299698 1.2792206 3.0883179l0 74.60349c0 2.4121246 -1.9554138 4.3675385 -4.3675385 4.3675385l-17.46965 0c-2.4121246 0 -4.3675385 -1.9554138 -4.3675385 -4.3675385z" fill-rule="evenodd"/><path fill="#ffffff" d="m204.23976 117.73081l0 0c0 -0.42617798 0.3454895 -0.7716675 0.7716675 -0.7716675l11.559021 0c0.20466614 0 0.40093994 0.08129883 0.5456543 0.22601318c0.14471436 0.14472198 0.22601318 0.3409958 0.22601318 0.5456543l0 3.086586c0 0.42617798 -0.34547424 0.7716675 -0.7716675 0.7716675l-11.559021 0c-0.42617798 0 -0.7716675 -0.3454895 -0.7716675 -0.7716675z" fill-rule="evenodd"/><path stroke="#595959" stroke-width="1.0" stroke-linejoin="round" stroke-linecap="butt" d="m204.23976 117.73081l0 0c0 -0.42617798 0.3454895 -0.7716675 0.7716675 -0.7716675l11.559021 0c0.20466614 0 0.40093994 0.08129883 0.5456543 0.22601318c0.14471436 0.14472198 0.22601318 0.3409958 0.22601318 0.5456543l0 3.086586c0 0.42617798 -0.34547424 0.7716675 -0.7716675 0.7716675l-11.559021 0c-0.42617798 0 -0.7716675 -0.3454895 -0.7716675 -0.7716675z" fill-rule="evenodd"/><path fill="#ffffff" d="m204.81807 131.41756l0 0c0 -0.42617798 0.3454895 -0.7716675 0.77168274 -0.7716675l11.559021 0c0.20465088 0 0.40093994 0.08129883 0.5456543 0.22601318c0.14471436 0.14471436 0.22601318 0.34100342 0.22601318 0.5456543l0 3.0865936c0 0.42617798 -0.3454895 0.7716675 -0.7716675 0.7716675l-11.559021 0c-0.42619324 0 -0.77168274 -0.3454895 -0.77168274 -0.7716675z" fill-rule="evenodd"/><path stroke="#595959" stroke-width="1.0" stroke-linejoin="round" stroke-linecap="butt" d="m204.81807 131.41756l0 0c0 -0.42617798 0.3454895 -0.7716675 0.77168274 -0.7716675l11.559021 0c0.20465088 0 0.40093994 0.08129883 0.5456543 0.22601318c0.14471436 0.14471436 0.22601318 0.34100342 0.22601318 0.5456543l0 3.0865936c0 0.42617798 -0.3454895 0.7716675 -0.7716675 0.7716675l-11.559021 0c-0.42619324 0 -0.77168274 -0.3454895 -0.77168274 -0.7716675z" fill-rule="evenodd"/><path fill="#ffffff" d="m208.09448 165.14853l0 0c0 1.2785187 1.2550201 2.3149567 2.8031616 2.3149567l0 0c1.5481262 0 2.8031464 -1.036438 2.8031464 -2.3149567l0 0c0 -1.2785187 -1.2550201 -2.314972 -2.8031464 -2.314972l0 0c-1.5481415 0 -2.8031616 1.0364532 -2.8031616 2.314972z" fill-rule="evenodd"/><path stroke="#595959" stroke-width="1.0" stroke-linejoin="round" stroke-linecap="butt" d="m208.09448 165.14853l0 0c0 1.2785187 1.2550201 2.3149567 2.8031616 2.3149567l0 0c1.5481262 0 2.8031464 -1.036438 2.8031464 -2.3149567l0 0c0 -1.2785187 -1.2550201 -2.314972 -2.8031464 -2.314972l0 0c-1.5481415 0 -2.8031616 1.0364532 -2.8031616 2.314972z" fill-rule="evenodd"/><path fill="#ffffff" d="m208.0948 160.51733l0 0c0 1.2785187 1.2550201 2.314972 2.8031464 2.314972l0 0c1.5481415 0 2.8031616 -1.0364532 2.8031616 -2.314972l0 0c0 -1.2785187 -1.2550201 -2.3149567 -2.8031616 -2.3149567l0 0c-1.5481262 0 -2.8031464 1.036438 -2.8031464 2.3149567z" fill-rule="evenodd"/><path stroke="#595959" stroke-width="1.0" stroke-linejoin="round" stroke-linecap="butt" d="m208.0948 160.51733l0 0c0 1.2785187 1.2550201 2.314972 2.8031464 2.314972l0 0c1.5481415 0 2.8031616 -1.0364532 2.8031616 -2.314972l0 0c0 -1.2785187 -1.2550201 -2.3149567 -2.8031616 -2.3149567l0 0c-1.5481262 0 -2.8031464 1.036438 -2.8031464 2.3149567z" fill-rule="evenodd"/><path fill="#ffffff" d="m213.70079 169.00395l0 0c0 -1.2785187 -1.2550201 -2.314972 -2.8031464 -2.314972l0 0c-1.5481415 0 -2.8031616 1.0364532 -2.8031616 2.314972l0 0c0 1.2785187 1.2550201 2.3149567 2.8031616 2.3149567l0 0c1.5481262 0 2.8031464 -1.036438 2.8031464 -2.3149567z" fill-rule="evenodd"/><path stroke="#595959" stroke-width="1.0" stroke-linejoin="round" stroke-linecap="butt" d="m213.70079 169.00395l0 0c0 -1.2785187 -1.2550201 -2.314972 -2.8031464 -2.314972l0 0c-1.5481415 0 -2.8031616 1.0364532 -2.8031616 2.314972l0 0c0 1.2785187 1.2550201 2.3149567 2.8031616 2.3149567l0 0c1.5481262 0 2.8031464 -1.036438 2.8031464 -2.3149567z" fill-rule="evenodd"/><path fill="#ffffff" d="m204.047 178.93564l0 0c0 -0.42619324 0.3454895 -0.7716675 0.7716675 -0.7716675l11.559021 0c0.20466614 0 0.40093994 0.08129883 0.5456543 0.22601318c0.14471436 0.14471436 0.22601318 0.34098816 0.22601318 0.5456543l0 3.0865784c0 0.42617798 -0.3454895 0.7716675 -0.7716675 0.7716675l-11.559021 0c-0.42617798 0 -0.7716675 -0.3454895 -0.7716675 -0.7716675z" fill-rule="evenodd"/><path stroke="#595959" stroke-width="1.0" stroke-linejoin="round" stroke-linecap="butt" d="m204.047 178.93564l0 0c0 -0.42619324 0.3454895 -0.7716675 0.7716675 -0.7716675l11.559021 0c0.20466614 0 0.40093994 0.08129883 0.5456543 0.22601318c0.14471436 0.14471436 0.22601318 0.34098816 0.22601318 0.5456543l0 3.0865784c0 0.42617798 -0.3454895 0.7716675 -0.7716675 0.7716675l-11.559021 0c-0.42617798 0 -0.7716675 -0.3454895 -0.7716675 -0.7716675z" fill-rule="evenodd"/><path fill="#000000" fill-opacity="0.0" d="m127.32546 256.1064l0 0c0 -3.5485992 2.8767166 -6.425308 6.425316 -6.425308l46.51944 0c1.7041016 0 3.3384094 0.6769409 4.5433807 1.8819275c1.2049866 1.2049866 1.8819427 2.8392944 1.8819427 4.5433807l0 25.700531c0 3.5486145 -2.8767242 6.4253235 -6.4253235 6.4253235l-46.51944 0c-3.5485992 0 -6.425316 -2.876709 -6.425316 -6.4253235z" fill-rule="evenodd"/><path stroke="#595959" stroke-width="1.0" stroke-linejoin="round" stroke-linecap="butt" d="m127.32546 256.1064l0 0c0 -3.5485992 2.8767166 -6.425308 6.425316 -6.425308l46.51944 0c1.7041016 0 3.3384094 0.6769409 4.5433807 1.8819275c1.2049866 1.2049866 1.8819427 2.8392944 1.8819427 4.5433807l0 25.700531c0 3.5486145 -2.8767242 6.4253235 -6.4253235 6.4253235l-46.51944 0c-3.5485992 0 -6.425316 -2.876709 -6.425316 -6.4253235z" fill-rule="evenodd"/><path fill="#000000" d="m153.92673 289.1667l0 0c0 -0.51605225 0.41835022 -0.9344177 0.93440247 -0.9344177l3.737503 0l0 0c0.247818 0 0.4854889 0.09844971 0.6607208 0.27368164c0.17523193 0.17523193 0.27368164 0.41290283 0.27368164 0.6607361l0 20.682373c0 0.51605225 -0.41835022 0.9344177 -0.93440247 0.9344177l-3.737503 0c-0.51605225 0 -0.93440247 -0.41836548 -0.93440247 -0.9344177z" fill-rule="evenodd"/><path stroke="#595959" stroke-width="1.0" stroke-linejoin="round" stroke-linecap="butt" d="m153.92673 289.1667l0 0c0 -0.51605225 0.41835022 -0.9344177 0.93440247 -0.9344177l3.737503 0l0 0c0.247818 0 0.4854889 0.09844971 0.6607208 0.27368164c0.17523193 0.17523193 0.27368164 0.41290283 0.27368164 0.6607361l0 20.682373c0 0.51605225 -0.41835022 0.9344177 -0.93440247 0.9344177l-3.737503 0c-0.51605225 0 -0.93440247 -0.41836548 -0.93440247 -0.9344177z" fill-rule="evenodd"/><path fill="#000000" fill-opacity="0.0" d="m147.3727 311.44864l19.275604 0.2204895" fill-rule="evenodd"/><path stroke="#595959" stroke-width="3.0" stroke-linejoin="round" stroke-linecap="butt" d="m147.3727 311.44864l19.275604 0.2204895" fill-rule="evenodd"/><path fill="#666666" d="m197.49344 232.69695l0 0c0 -2.41214 1.9554138 -4.3675537 4.3675385 -4.3675537l17.46965 0l0 0c1.1583405 0 2.2692413 0.4601593 3.0883179 1.2792206c0.8190613 0.81907654 1.2792206 1.9299774 1.2792206 3.0883331l0 74.6035c0 2.4121094 -1.9554138 4.367523 -4.3675385 4.367523l-17.46965 0c-2.4121246 0 -4.3675385 -1.9554138 -4.3675385 -4.367523z" fill-rule="evenodd"/><path stroke="#595959" stroke-width="1.0" stroke-linejoin="round" stroke-linecap="butt" d="m197.49344 232.69695l0 0c0 -2.41214 1.9554138 -4.3675537 4.3675385 -4.3675537l17.46965 0l0 0c1.1583405 0 2.2692413 0.4601593 3.0883179 1.2792206c0.8190613 0.81907654 1.2792206 1.9299774 1.2792206 3.0883331l0 74.6035c0 2.4121094 -1.9554138 4.367523 -4.3675385 4.367523l-17.46965 0c-2.4121246 0 -4.3675385 -1.9554138 -4.3675385 -4.367523z" fill-rule="evenodd"/><path fill="#ffffff" d="m204.23976 239.02872l0 0c0 -0.42617798 0.3454895 -0.7716675 0.7716675 -0.7716675l11.559021 0c0.20466614 0 0.40093994 0.08129883 0.5456543 0.22601318c0.14471436 0.14471436 0.22601318 0.34098816 0.22601318 0.5456543l0 3.0865784c0 0.42617798 -0.34547424 0.7716675 -0.7716675 0.7716675l-11.559021 0c-0.42617798 0 -0.7716675 -0.3454895 -0.7716675 -0.7716675z" fill-rule="evenodd"/><path stroke="#595959" stroke-width="1.0" stroke-linejoin="round" stroke-linecap="butt" d="m204.23976 239.02872l0 0c0 -0.42617798 0.3454895 -0.7716675 0.7716675 -0.7716675l11.559021 0c0.20466614 0 0.40093994 0.08129883 0.5456543 0.22601318c0.14471436 0.14471436 0.22601318 0.34098816 0.22601318 0.5456543l0 3.0865784c0 0.42617798 -0.34547424 0.7716675 -0.7716675 0.7716675l-11.559021 0c-0.42617798 0 -0.7716675 -0.3454895 -0.7716675 -0.7716675z" fill-rule="evenodd"/><path fill="#ffffff" d="m204.81807 252.71545l0 0c0 -0.42617798 0.3454895 -0.7716675 0.77168274 -0.7716675l11.559021 0c0.20465088 0 0.40093994 0.08129883 0.5456543 0.22602844c0.14471436 0.14471436 0.22601318 0.34098816 0.22601318 0.54563904l0 3.0865936c0 0.42616272 -0.3454895 0.7716522 -0.7716675 0.7716522l-11.559021 0c-0.42619324 0 -0.77168274 -0.3454895 -0.77168274 -0.7716522z" fill-rule="evenodd"/><path stroke="#595959" stroke-width="1.0" stroke-linejoin="round" stroke-linecap="butt" d="m204.81807 252.71545l0 0c0 -0.42617798 0.3454895 -0.7716675 0.77168274 -0.7716675l11.559021 0c0.20465088 0 0.40093994 0.08129883 0.5456543 0.22602844c0.14471436 0.14471436 0.22601318 0.34098816 0.22601318 0.54563904l0 3.0865936c0 0.42616272 -0.3454895 0.7716522 -0.7716675 0.7716522l-11.559021 0c-0.42619324 0 -0.77168274 -0.3454895 -0.77168274 -0.7716522z" fill-rule="evenodd"/><path fill="#ffffff" d="m208.09448 286.4464l0 0c0 1.2785339 1.2550201 2.314972 2.8031616 2.314972l0 0c1.5481262 0 2.8031464 -1.036438 2.8031464 -2.314972l0 0c0 -1.2785034 -1.2550201 -2.3149414 -2.8031464 -2.3149414l0 0c-1.5481415 0 -2.8031616 1.036438 -2.8031616 2.3149414z" fill-rule="evenodd"/><path stroke="#595959" stroke-width="1.0" stroke-linejoin="round" stroke-linecap="butt" d="m208.09448 286.4464l0 0c0 1.2785339 1.2550201 2.314972 2.8031616 2.314972l0 0c1.5481262 0 2.8031464 -1.036438 2.8031464 -2.314972l0 0c0 -1.2785034 -1.2550201 -2.3149414 -2.8031464 -2.3149414l0 0c-1.5481415 0 -2.8031616 1.036438 -2.8031616 2.3149414z" fill-rule="evenodd"/><path fill="#ffffff" d="m208.0948 281.81525l0 0c0 1.2785034 1.2550201 2.3149414 2.8031464 2.3149414l0 0c1.5481415 0 2.8031616 -1.036438 2.8031616 -2.3149414l0 0c0 -1.2785339 -1.2550201 -2.314972 -2.8031616 -2.314972l0 0c-1.5481262 0 -2.8031464 1.036438 -2.8031464 2.314972z" fill-rule="evenodd"/><path stroke="#595959" stroke-width="1.0" stroke-linejoin="round" stroke-linecap="butt" d="m208.0948 281.81525l0 0c0 1.2785034 1.2550201 2.3149414 2.8031464 2.3149414l0 0c1.5481415 0 2.8031616 -1.036438 2.8031616 -2.3149414l0 0c0 -1.2785339 -1.2550201 -2.314972 -2.8031616 -2.314972l0 0c-1.5481262 0 -2.8031464 1.036438 -2.8031464 2.314972z" fill-rule="evenodd"/><path fill="#ffffff" d="m213.70079 290.30185l0 0c0 -1.2785339 -1.2550201 -2.314972 -2.8031464 -2.314972l0 0c-1.5481415 0 -2.8031616 1.036438 -2.8031616 2.314972l0 0c0 1.2785034 1.2550201 2.314972 2.8031616 2.314972l0 0c1.5481262 0 2.8031464 -1.0364685 2.8031464 -2.314972z" fill-rule="evenodd"/><path stroke="#595959" stroke-width="1.0" stroke-linejoin="round" stroke-linecap="butt" d="m213.70079 290.30185l0 0c0 -1.2785339 -1.2550201 -2.314972 -2.8031464 -2.314972l0 0c-1.5481415 0 -2.8031616 1.036438 -2.8031616 2.314972l0 0c0 1.2785034 1.2550201 2.314972 2.8031616 2.314972l0 0c1.5481262 0 2.8031464 -1.0364685 2.8031464 -2.314972z" fill-rule="evenodd"/><path fill="#ffffff" d="m204.047 300.23352l0 0c0 -0.42617798 0.3454895 -0.7716675 0.7716675 -0.7716675l11.559021 0c0.20466614 0 0.40093994 0.08129883 0.5456543 0.22601318c0.14471436 0.14474487 0.22601318 0.34100342 0.22601318 0.5456543l0 3.086609c0 0.42617798 -0.3454895 0.7716675 -0.7716675 0.7716675l-11.559021 0c-0.42617798 0 -0.7716675 -0.3454895 -0.7716675 -0.7716675z" fill-rule="evenodd"/><path stroke="#595959" stroke-width="1.0" stroke-linejoin="round" stroke-linecap="butt" d="m204.047 300.23352l0 0c0 -0.42617798 0.3454895 -0.7716675 0.7716675 -0.7716675l11.559021 0c0.20466614 0 0.40093994 0.08129883 0.5456543 0.22601318c0.14471436 0.14474487 0.22601318 0.34100342 0.22601318 0.5456543l0 3.086609c0 0.42617798 -0.3454895 0.7716675 -0.7716675 0.7716675l-11.559021 0c-0.42617798 0 -0.7716675 -0.3454895 -0.7716675 -0.7716675z" fill-rule="evenodd"/><path fill="#000000" fill-opacity="0.0" d="m127.32546 377.40695l0 0c0 -3.5486145 2.8767166 -6.4253235 6.425316 -6.4253235l46.51944 0c1.7041016 0 3.3384094 0.6769409 4.5433807 1.8819275c1.2049866 1.2049866 1.8819427 2.8392944 1.8819427 4.543396l0 25.700531c0 3.5486145 -2.8767242 6.4253235 -6.4253235 6.4253235l-46.51944 0c-3.5485992 0 -6.425316 -2.876709 -6.425316 -6.4253235z" fill-rule="evenodd"/><path stroke="#595959" stroke-width="1.0" stroke-linejoin="round" stroke-linecap="butt" d="m127.32546 377.40695l0 0c0 -3.5486145 2.8767166 -6.4253235 6.425316 -6.4253235l46.51944 0c1.7041016 0 3.3384094 0.6769409 4.5433807 1.8819275c1.2049866 1.2049866 1.8819427 2.8392944 1.8819427 4.543396l0 25.700531c0 3.5486145 -2.8767242 6.4253235 -6.4253235 6.4253235l-46.51944 0c-3.5485992 0 -6.425316 -2.876709 -6.425316 -6.4253235z" fill-rule="evenodd"/><path fill="#000000" d="m153.92673 410.46722l0 0c0 -0.51608276 0.41835022 -0.9344177 0.93440247 -0.9344177l3.737503 0l0 0c0.247818 0 0.4854889 0.09844971 0.6607208 0.27368164c0.17523193 0.17523193 0.27368164 0.41290283 0.27368164 0.6607361l0 20.682373c0 0.51605225 -0.41835022 0.9343872 -0.93440247 0.9343872l-3.737503 0c-0.51605225 0 -0.93440247 -0.41833496 -0.93440247 -0.9343872z" fill-rule="evenodd"/><path stroke="#595959" stroke-width="1.0" stroke-linejoin="round" stroke-linecap="butt" d="m153.92673 410.46722l0 0c0 -0.51608276 0.41835022 -0.9344177 0.93440247 -0.9344177l3.737503 0l0 0c0.247818 0 0.4854889 0.09844971 0.6607208 0.27368164c0.17523193 0.17523193 0.27368164 0.41290283 0.27368164 0.6607361l0 20.682373c0 0.51605225 -0.41835022 0.9343872 -0.93440247 0.9343872l-3.737503 0c-0.51605225 0 -0.93440247 -0.41833496 -0.93440247 -0.9343872z" fill-rule="evenodd"/><path fill="#000000" fill-opacity="0.0" d="m147.3727 432.74918l19.275604 0.22045898" fill-rule="evenodd"/><path stroke="#595959" stroke-width="3.0" stroke-linejoin="round" stroke-linecap="butt" d="m147.3727 432.74918l19.275604 0.22045898" fill-rule="evenodd"/><path fill="#666666" d="m197.49344 353.99747l0 0c0 -2.41214 1.9554138 -4.3675537 4.3675385 -4.3675537l17.46965 0l0 0c1.1583405 0 2.2692413 0.46014404 3.0883179 1.2792358c0.8190613 0.8190613 1.2792206 1.9299622 1.2792206 3.0883179l0 74.603485c0 2.41214 -1.9554138 4.3675537 -4.3675385 4.3675537l-17.46965 0c-2.4121246 0 -4.3675385 -1.9554138 -4.3675385 -4.3675537z" fill-rule="evenodd"/><path stroke="#595959" stroke-width="1.0" stroke-linejoin="round" stroke-linecap="butt" d="m197.49344 353.99747l0 0c0 -2.41214 1.9554138 -4.3675537 4.3675385 -4.3675537l17.46965 0l0 0c1.1583405 0 2.2692413 0.46014404 3.0883179 1.2792358c0.8190613 0.8190613 1.2792206 1.9299622 1.2792206 3.0883179l0 74.603485c0 2.41214 -1.9554138 4.3675537 -4.3675385 4.3675537l-17.46965 0c-2.4121246 0 -4.3675385 -1.9554138 -4.3675385 -4.3675537z" fill-rule="evenodd"/><path fill="#ffffff" d="m204.23976 360.32922l0 0c0 -0.42617798 0.3454895 -0.7716675 0.7716675 -0.7716675l11.559021 0c0.20466614 0 0.40093994 0.08129883 0.5456543 0.2260437c0.14471436 0.14471436 0.22601318 0.3409729 0.22601318 0.5456238l0 3.086609c0 0.42617798 -0.34547424 0.7716675 -0.7716675 0.7716675l-11.559021 0c-0.42617798 0 -0.7716675 -0.3454895 -0.7716675 -0.7716675z" fill-rule="evenodd"/><path stroke="#595959" stroke-width="1.0" stroke-linejoin="round" stroke-linecap="butt" d="m204.23976 360.32922l0 0c0 -0.42617798 0.3454895 -0.7716675 0.7716675 -0.7716675l11.559021 0c0.20466614 0 0.40093994 0.08129883 0.5456543 0.2260437c0.14471436 0.14471436 0.22601318 0.3409729 0.22601318 0.5456238l0 3.086609c0 0.42617798 -0.34547424 0.7716675 -0.7716675 0.7716675l-11.559021 0c-0.42617798 0 -0.7716675 -0.3454895 -0.7716675 -0.7716675z" fill-rule="evenodd"/><path fill="#ffffff" d="m204.81807 374.016l0 0c0 -0.42617798 0.3454895 -0.7716675 0.77168274 -0.7716675l11.559021 0c0.20465088 0 0.40093994 0.08129883 0.5456543 0.22601318c0.14471436 0.14471436 0.22601318 0.34100342 0.22601318 0.5456543l0 3.0865784c0 0.42617798 -0.3454895 0.7716675 -0.7716675 0.7716675l-11.559021 0c-0.42619324 0 -0.77168274 -0.3454895 -0.77168274 -0.7716675z" fill-rule="evenodd"/><path stroke="#595959" stroke-width="1.0" stroke-linejoin="round" stroke-linecap="butt" d="m204.81807 374.016l0 0c0 -0.42617798 0.3454895 -0.7716675 0.77168274 -0.7716675l11.559021 0c0.20465088 0 0.40093994 0.08129883 0.5456543 0.22601318c0.14471436 0.14471436 0.22601318 0.34100342 0.22601318 0.5456543l0 3.0865784c0 0.42617798 -0.3454895 0.7716675 -0.7716675 0.7716675l-11.559021 0c-0.42619324 0 -0.77168274 -0.3454895 -0.77168274 -0.7716675z" fill-rule="evenodd"/><path fill="#ffffff" d="m208.09448 407.74695l0 0c0 1.2785339 1.2550201 2.314972 2.8031616 2.314972l0 0c1.5481262 0 2.8031464 -1.036438 2.8031464 -2.314972l0 0c0 -1.2785034 -1.2550201 -2.314972 -2.8031464 -2.314972l0 0c-1.5481415 0 -2.8031616 1.0364685 -2.8031616 2.314972z" fill-rule="evenodd"/><path stroke="#595959" stroke-width="1.0" stroke-linejoin="round" stroke-linecap="butt" d="m208.09448 407.74695l0 0c0 1.2785339 1.2550201 2.314972 2.8031616 2.314972l0 0c1.5481262 0 2.8031464 -1.036438 2.8031464 -2.314972l0 0c0 -1.2785034 -1.2550201 -2.314972 -2.8031464 -2.314972l0 0c-1.5481415 0 -2.8031616 1.0364685 -2.8031616 2.314972z" fill-rule="evenodd"/><path fill="#ffffff" d="m208.0948 403.11575l0 0c0 1.2785339 1.2550201 2.314972 2.8031464 2.314972l0 0c1.5481415 0 2.8031616 -1.036438 2.8031616 -2.314972l0 0c0 -1.2785034 -1.2550201 -2.3149414 -2.8031616 -2.3149414l0 0c-1.5481262 0 -2.8031464 1.036438 -2.8031464 2.3149414z" fill-rule="evenodd"/><path stroke="#595959" stroke-width="1.0" stroke-linejoin="round" stroke-linecap="butt" d="m208.0948 403.11575l0 0c0 1.2785339 1.2550201 2.314972 2.8031464 2.314972l0 0c1.5481415 0 2.8031616 -1.036438 2.8031616 -2.314972l0 0c0 -1.2785034 -1.2550201 -2.3149414 -2.8031616 -2.3149414l0 0c-1.5481262 0 -2.8031464 1.036438 -2.8031464 2.3149414z" fill-rule="evenodd"/><path fill="#ffffff" d="m213.70079 411.6024l0 0c0 -1.2785339 -1.2550201 -2.314972 -2.8031464 -2.314972l0 0c-1.5481415 0 -2.8031616 1.036438 -2.8031616 2.314972l0 0c0 1.2785034 1.2550201 2.3149414 2.8031616 2.3149414l0 0c1.5481262 0 2.8031464 -1.036438 2.8031464 -2.3149414z" fill-rule="evenodd"/><path stroke="#595959" stroke-width="1.0" stroke-linejoin="round" stroke-linecap="butt" d="m213.70079 411.6024l0 0c0 -1.2785339 -1.2550201 -2.314972 -2.8031464 -2.314972l0 0c-1.5481415 0 -2.8031616 1.036438 -2.8031616 2.314972l0 0c0 1.2785034 1.2550201 2.3149414 2.8031616 2.3149414l0 0c1.5481262 0 2.8031464 -1.036438 2.8031464 -2.3149414z" fill-rule="evenodd"/><path fill="#ffffff" d="m204.047 421.53406l0 0c0 -0.42617798 0.3454895 -0.7716675 0.7716675 -0.7716675l11.559021 0c0.20466614 0 0.40093994 0.08129883 0.5456543 0.22601318c0.14471436 0.14471436 0.22601318 0.34100342 0.22601318 0.5456543l0 3.0865784c0 0.42617798 -0.3454895 0.7716675 -0.7716675 0.7716675l-11.559021 0c-0.42617798 0 -0.7716675 -0.3454895 -0.7716675 -0.7716675z" fill-rule="evenodd"/><path stroke="#595959" stroke-width="1.0" stroke-linejoin="round" stroke-linecap="butt" d="m204.047 421.53406l0 0c0 -0.42617798 0.3454895 -0.7716675 0.7716675 -0.7716675l11.559021 0c0.20466614 0 0.40093994 0.08129883 0.5456543 0.22601318c0.14471436 0.14471436 0.22601318 0.34100342 0.22601318 0.5456543l0 3.0865784c0 0.42617798 -0.3454895 0.7716675 -0.7716675 0.7716675l-11.559021 0c-0.42617798 0 -0.7716675 -0.3454895 -0.7716675 -0.7716675z" fill-rule="evenodd"/><path fill="#000000" fill-opacity="0.0" d="m223.69817 148.70079l64.00639 0l0 121.291336l63.99359 0" fill-rule="evenodd"/><path stroke="#595959" stroke-width="1.0" stroke-linejoin="round" stroke-linecap="butt" d="m223.69817 148.70079l64.00639 0l0 121.291336l57.99359 0" fill-rule="evenodd"/><path fill="#595959" stroke="#595959" stroke-width="1.0" stroke-linecap="butt" d="m345.69815 271.64386l4.5381165 -1.6517334l-4.5381165 -1.6517334z" fill-rule="evenodd"/><path fill="#000000" fill-opacity="0.0" d="m223.69817 391.29922l64.00639 0l0 -121.29135l63.99359 0" fill-rule="evenodd"/><path stroke="#595959" stroke-width="1.0" stroke-linejoin="round" stroke-linecap="butt" d="m223.69817 391.29922l64.00639 0l0 -121.29135l57.99359 0" fill-rule="evenodd"/><path fill="#595959" stroke="#595959" stroke-width="1.0" stroke-linecap="butt" d="m345.69815 271.6596l4.5381165 -1.6517334l-4.5381165 -1.6517334z" fill-rule="evenodd"/><path fill="#000000" fill-opacity="0.0" d="m223.69817 269.9987l64.00639 0l0 0.06298828l63.99359 0" fill-rule="evenodd"/><path stroke="#595959" stroke-width="1.0" stroke-linejoin="round" stroke-linecap="butt" d="m223.69817 269.9987l64.00639 0l0 0.06298828l63.99359 0" fill-rule="evenodd"/><path fill="#000000" fill-opacity="0.0" d="m653.00525 122.64567l103.33856 0l0 26.20472l-103.33856 0z" fill-rule="evenodd"/><path fill="#000000" d="m662.9271 143.16566l0 -8.59375l3.25 0q0.84375 0 1.296875 0.078125q0.640625 0.109375 1.0625 0.40625q0.4375 0.296875 0.6875 0.828125q0.265625 0.53125 0.265625 1.171875q0 1.09375 -0.703125 1.859375q-0.6875 0.75 -2.515625 0.75l-2.203125 0l0 3.5l-1.140625 0zm1.140625 -4.5l2.21875 0q1.109375 0 1.5625 -0.40625q0.46875 -0.421875 0.46875 -1.171875q0 -0.53125 -0.28125 -0.90625q-0.265625 -0.390625 -0.703125 -0.515625q-0.296875 -0.078125 -1.0625 -0.078125l-2.203125 0l0 3.078125zm6.7226562 4.5l0 -6.21875l0.953125 0l0 0.9375q0.359375 -0.65625 0.65625 -0.859375q0.3125 -0.21875 0.6875 -0.21875q0.53125 0 1.078125 0.328125l-0.359375 0.984375q-0.390625 -0.234375 -0.765625 -0.234375q-0.359375 0 -0.640625 0.21875q-0.265625 0.203125 -0.375 0.578125q-0.1875 0.5625 -0.1875 1.21875l0 3.265625l-1.046875 0zm4.0117188 -7.375l0 -1.21875l1.0625 0l0 1.21875l-1.0625 0zm0 7.375l0 -6.21875l1.0625 0l0 6.21875l-1.0625 0zm2.6660156 0l0 -6.21875l0.9375 0l0 0.875q0.296875 -0.46875 0.78125 -0.734375q0.484375 -0.28125 1.109375 -0.28125q0.6875 0 1.125 0.28125q0.453125 0.28125 0.625 0.796875q0.75 -1.078125 1.921875 -1.078125q0.9375 0 1.421875 0.515625q0.5 0.5 0.5 1.578125l0 4.265625l-1.046875 0l0 -3.921875q0 -0.625 -0.109375 -0.90625q-0.09375 -0.28125 -0.359375 -0.453125q-0.265625 -0.171875 -0.640625 -0.171875q-0.65625 0 -1.09375 0.4375q-0.421875 0.4375 -0.421875 1.40625l0 3.609375l-1.0625 0l0 -4.046875q0 -0.703125 -0.265625 -1.046875q-0.25 -0.359375 -0.828125 -0.359375q-0.453125 0 -0.828125 0.234375q-0.375 0.234375 -0.546875 0.6875q-0.171875 0.453125 -0.171875 1.296875l0 3.234375l-1.046875 0zm14.058594 -0.765625q-0.59375 0.5 -1.140625 0.703125q-0.53125 0.203125 -1.15625 0.203125q-1.03125 0 -1.578125 -0.5q-0.546875 -0.5 -0.546875 -1.28125q0 -0.453125 0.203125 -0.828125q0.203125 -0.390625 0.546875 -0.609375q0.34375 -0.234375 0.765625 -0.34375q0.296875 -0.09375 0.9375 -0.171875q1.265625 -0.140625 1.875 -0.359375q0 -0.21875 0 -0.265625q0 -0.65625 -0.296875 -0.921875q-0.40625 -0.34375 -1.203125 -0.34375q-0.734375 0 -1.09375 0.265625q-0.359375 0.25 -0.53125 0.90625l-1.03125 -0.140625q0.140625 -0.65625 0.46875 -1.0625q0.328125 -0.40625 0.9375 -0.625q0.609375 -0.21875 1.40625 -0.21875q0.796875 0 1.296875 0.1875q0.5 0.1875 0.734375 0.46875q0.234375 0.28125 0.328125 0.71875q0.046875 0.265625 0.046875 0.96875l0 1.40625q0 1.46875 0.0625 1.859375q0.078125 0.390625 0.28125 0.75l-1.109375 0q-0.15625 -0.328125 -0.203125 -0.765625zm-0.09375 -2.359375q-0.578125 0.234375 -1.71875 0.40625q-0.65625 0.09375 -0.921875 0.21875q-0.265625 0.109375 -0.421875 0.328125q-0.140625 0.21875 -0.140625 0.5q0 0.421875 0.3125 0.703125q0.328125 0.28125 0.9375 0.28125q0.609375 0 1.078125 -0.265625q0.484375 -0.265625 0.703125 -0.734375q0.171875 -0.359375 0.171875 -1.046875l0 -0.390625zm2.6894531 3.125l0 -6.21875l0.953125 0l0 0.9375q0.359375 -0.65625 0.65625 -0.859375q0.3125 -0.21875 0.6875 -0.21875q0.53125 0 1.078125 0.328125l-0.359375 0.984375q-0.390625 -0.234375 -0.765625 -0.234375q-0.359375 0 -0.640625 0.21875q-0.265625 0.203125 -0.375 0.578125q-0.1875 0.5625 -0.1875 1.21875l0 3.265625l-1.046875 0zm3.9648438 2.390625l-0.125 -0.984375q0.34375 0.09375 0.609375 0.09375q0.34375 0 0.546875 -0.125q0.21875 -0.109375 0.359375 -0.3125q0.09375 -0.171875 0.328125 -0.796875q0.015625 -0.078125 0.09375 -0.25l-2.375 -6.234375l1.140625 0l1.296875 3.59375q0.25 0.6875 0.453125 1.453125q0.1875 -0.734375 0.4375 -1.421875l1.328125 -3.625l1.046875 0l-2.359375 6.328125q-0.390625 1.015625 -0.59375 1.40625q-0.28125 0.53125 -0.65625 0.765625q-0.359375 0.25 -0.859375 0.25q-0.296875 0 -0.671875 -0.140625zm8.958984 -4.25l1.03125 -0.15625q0.09375 0.625 0.484375 0.953125q0.40625 0.328125 1.140625 0.328125q0.71875 0 1.0625 -0.28125q0.359375 -0.296875 0.359375 -0.703125q0 -0.359375 -0.3125 -0.5625q-0.21875 -0.140625 -1.078125 -0.359375q-1.15625 -0.296875 -1.609375 -0.5q-0.4375 -0.21875 -0.671875 -0.59375q-0.234375 -0.375 -0.234375 -0.84375q0 -0.40625 0.1875 -0.765625q0.1875 -0.359375 0.515625 -0.59375q0.25 -0.171875 0.671875 -0.296875q0.421875 -0.125 0.921875 -0.125q0.71875 0 1.265625 0.21875q0.5625 0.203125 0.828125 0.5625q0.265625 0.359375 0.359375 0.953125l-1.03125 0.140625q-0.0625 -0.46875 -0.40625 -0.734375q-0.328125 -0.28125 -0.953125 -0.28125q-0.71875 0 -1.03125 0.25q-0.3125 0.234375 -0.3125 0.5625q0 0.203125 0.125 0.359375q0.140625 0.171875 0.40625 0.28125q0.15625 0.0625 0.9375 0.265625q1.125 0.3125 1.5625 0.5q0.4375 0.1875 0.6875 0.546875q0.25 0.359375 0.25 0.90625q0 0.53125 -0.3125 1.0q-0.296875 0.453125 -0.875 0.71875q-0.578125 0.25 -1.3125 0.25q-1.21875 0 -1.859375 -0.5q-0.625 -0.515625 -0.796875 -1.5zm10.671875 -0.140625l1.09375 0.125q-0.25 0.953125 -0.953125 1.484375q-0.703125 0.53125 -1.78125 0.53125q-1.359375 0 -2.171875 -0.84375q-0.796875 -0.84375 -0.796875 -2.359375q0 -1.5625 0.8125 -2.421875q0.8125 -0.875 2.09375 -0.875q1.25 0 2.03125 0.84375q0.796875 0.84375 0.796875 2.390625q0 0.09375 0 0.28125l-4.640625 0q0.0625 1.03125 0.578125 1.578125q0.515625 0.53125 1.296875 0.53125q0.578125 0 0.984375 -0.296875q0.421875 -0.3125 0.65625 -0.96875zm-3.453125 -1.703125l3.46875 0q-0.0625 -0.796875 -0.390625 -1.1875q-0.515625 -0.609375 -1.3125 -0.609375q-0.734375 0 -1.234375 0.484375q-0.484375 0.484375 -0.53125 1.3125zm5.861328 3.703125l0 -6.21875l0.953125 0l0 0.9375q0.359375 -0.65625 0.65625 -0.859375q0.3125 -0.21875 0.6875 -0.21875q0.53125 0 1.078125 0.328125l-0.359375 0.984375q-0.390625 -0.234375 -0.765625 -0.234375q-0.359375 0 -0.640625 0.21875q-0.265625 0.203125 -0.375 0.578125q-0.1875 0.5625 -0.1875 1.21875l0 3.265625l-1.046875 0zm5.7304688 0l-2.359375 -6.21875l1.109375 0l1.34375 3.71875q0.203125 0.609375 0.390625 1.25q0.140625 -0.484375 0.390625 -1.171875l1.390625 -3.796875l1.078125 0l-2.359375 6.21875l-0.984375 0zm8.53125 -2.0l1.09375 0.125q-0.25 0.953125 -0.953125 1.484375q-0.703125 0.53125 -1.78125 0.53125q-1.359375 0 -2.171875 -0.84375q-0.796875 -0.84375 -0.796875 -2.359375q0 -1.5625 0.8125 -2.421875q0.8125 -0.875 2.09375 -0.875q1.25 0 2.03125 0.84375q0.796875 0.84375 0.796875 2.390625q0 0.09375 0 0.28125l-4.640625 0q0.0625 1.03125 0.578125 1.578125q0.515625 0.53125 1.296875 0.53125q0.578125 0 0.984375 -0.296875q0.421875 -0.3125 0.65625 -0.96875zm-3.453125 -1.703125l3.46875 0q-0.0625 -0.796875 -0.390625 -1.1875q-0.515625 -0.609375 -1.3125 -0.609375q-0.734375 0 -1.234375 0.484375q-0.484375 0.484375 -0.53125 1.3125zm5.861328 3.703125l0 -6.21875l0.953125 0l0 0.9375q0.359375 -0.65625 0.65625 -0.859375q0.3125 -0.21875 0.6875 -0.21875q0.53125 0 1.078125 0.328125l-0.359375 0.984375q-0.390625 -0.234375 -0.765625 -0.234375q-0.359375 0 -0.640625 0.21875q-0.265625 0.203125 -0.375 0.578125q-0.1875 0.5625 -0.1875 1.21875l0 3.265625l-1.046875 0zm3.5898438 -1.859375l1.03125 -0.15625q0.09375 0.625 0.484375 0.953125q0.40625 0.328125 1.140625 0.328125q0.71875 0 1.0625 -0.28125q0.359375 -0.296875 0.359375 -0.703125q0 -0.359375 -0.3125 -0.5625q-0.21875 -0.140625 -1.078125 -0.359375q-1.15625 -0.296875 -1.609375 -0.5q-0.4375 -0.21875 -0.671875 -0.59375q-0.234375 -0.375 -0.234375 -0.84375q0 -0.40625 0.1875 -0.765625q0.1875 -0.359375 0.515625 -0.59375q0.25 -0.171875 0.671875 -0.296875q0.421875 -0.125 0.921875 -0.125q0.71875 0 1.265625 0.21875q0.5625 0.203125 0.828125 0.5625q0.265625 0.359375 0.359375 0.953125l-1.03125 0.140625q-0.0625 -0.46875 -0.40625 -0.734375q-0.328125 -0.28125 -0.953125 -0.28125q-0.71875 0 -1.03125 0.25q-0.3125 0.234375 -0.3125 0.5625q0 0.203125 0.125 0.359375q0.140625 0.171875 0.40625 0.28125q0.15625 0.0625 0.9375 0.265625q1.125 0.3125 1.5625 0.5q0.4375 0.1875 0.6875 0.546875q0.25 0.359375 0.25 0.90625q0 0.53125 -0.3125 1.0q-0.296875 0.453125 -0.875 0.71875q-0.578125 0.25 -1.3125 0.25q-1.21875 0 -1.859375 -0.5q-0.625 -0.515625 -0.796875 -1.5z" fill-rule="nonzero"/><path fill="#000000" fill-opacity="0.0" d="m643.746 299.46478l123.40155 0l0 26.204742l-123.40155 0z" fill-rule="evenodd"/><path fill="#000000" d="m653.29285 317.21918l1.0625 -0.09375q0.078125 0.65625 0.359375 1.0625q0.28125 0.40625 0.859375 0.671875q0.59375 0.25 1.328125 0.25q0.640625 0 1.140625 -0.1875q0.5 -0.203125 0.734375 -0.53125q0.25 -0.34375 0.25 -0.734375q0 -0.40625 -0.234375 -0.703125q-0.234375 -0.3125 -0.765625 -0.515625q-0.359375 -0.140625 -1.546875 -0.421875q-1.171875 -0.28125 -1.640625 -0.53125q-0.625 -0.328125 -0.921875 -0.796875q-0.296875 -0.484375 -0.296875 -1.078125q0 -0.640625 0.359375 -1.203125q0.375 -0.578125 1.078125 -0.859375q0.71875 -0.296875 1.578125 -0.296875q0.953125 0 1.6875 0.3125q0.734375 0.296875 1.125 0.90625q0.390625 0.59375 0.421875 1.34375l-1.09375 0.078125q-0.09375 -0.8125 -0.609375 -1.21875q-0.5 -0.421875 -1.484375 -0.421875q-1.03125 0 -1.5 0.375q-0.46875 0.375 -0.46875 0.90625q0 0.46875 0.328125 0.765625q0.328125 0.296875 1.703125 0.609375q1.390625 0.3125 1.90625 0.546875q0.75 0.359375 1.109375 0.890625q0.359375 0.515625 0.359375 1.21875q0 0.6875 -0.390625 1.296875q-0.390625 0.59375 -1.125 0.9375q-0.734375 0.328125 -1.65625 0.328125q-1.171875 0 -1.96875 -0.328125q-0.78125 -0.34375 -1.234375 -1.03125q-0.4375 -0.6875 -0.453125 -1.546875zm12.503906 0.765625l1.09375 0.125q-0.25 0.953125 -0.953125 1.484375q-0.703125 0.53125 -1.78125 0.53125q-1.359375 0 -2.171875 -0.84375q-0.796875 -0.84375 -0.796875 -2.359375q0 -1.5625 0.8125 -2.421875q0.8125 -0.875 2.09375 -0.875q1.25 0 2.03125 0.84375q0.796875 0.84375 0.796875 2.390625q0 0.09375 0 0.28125l-4.640625 0q0.0625 1.03125 0.578125 1.578125q0.515625 0.53125 1.296875 0.53125q0.578125 0 0.984375 -0.296875q0.421875 -0.3125 0.65625 -0.96875zm-3.453125 -1.703125l3.46875 0q-0.0625 -0.796875 -0.390625 -1.1875q-0.515625 -0.609375 -1.3125 -0.609375q-0.734375 0 -1.234375 0.484375q-0.484375 0.484375 -0.53125 1.3125zm9.939453 1.421875l1.03125 0.140625q-0.171875 1.0625 -0.875 1.671875q-0.703125 0.609375 -1.71875 0.609375q-1.28125 0 -2.0625 -0.828125q-0.765625 -0.84375 -0.765625 -2.40625q0 -1.0 0.328125 -1.75q0.34375 -0.765625 1.015625 -1.140625q0.6875 -0.375 1.5 -0.375q1.0 0 1.640625 0.515625q0.65625 0.5 0.84375 1.453125l-1.03125 0.15625q-0.140625 -0.625 -0.515625 -0.9375q-0.375 -0.328125 -0.90625 -0.328125q-0.796875 0 -1.296875 0.578125q-0.5 0.5625 -0.5 1.796875q0 1.265625 0.484375 1.828125q0.484375 0.5625 1.25 0.5625q0.625 0 1.03125 -0.375q0.421875 -0.375 0.546875 -1.171875zm1.546875 -0.828125q0 -1.734375 0.953125 -2.5625q0.796875 -0.6875 1.953125 -0.6875q1.28125 0 2.09375 0.84375q0.828125 0.828125 0.828125 2.3125q0 1.203125 -0.359375 1.890625q-0.359375 0.6875 -1.0625 1.078125q-0.6875 0.375 -1.5 0.375q-1.296875 0 -2.109375 -0.828125q-0.796875 -0.84375 -0.796875 -2.421875zm1.078125 0q0 1.1875 0.515625 1.78125q0.53125 0.59375 1.3125 0.59375q0.796875 0 1.3125 -0.59375q0.515625 -0.59375 0.515625 -1.8125q0 -1.15625 -0.53125 -1.75q-0.515625 -0.59375 -1.296875 -0.59375q-0.78125 0 -1.3125 0.59375q-0.515625 0.578125 -0.515625 1.78125zm5.986328 3.109375l0 -6.21875l0.9375 0l0 0.875q0.6875 -1.015625 1.984375 -1.015625q0.5625 0 1.03125 0.203125q0.484375 0.203125 0.71875 0.53125q0.234375 0.328125 0.328125 0.765625q0.046875 0.296875 0.046875 1.03125l0 3.828125l-1.046875 0l0 -3.78125q0 -0.65625 -0.125 -0.96875q-0.125 -0.3125 -0.4375 -0.5q-0.3125 -0.203125 -0.734375 -0.203125q-0.671875 0 -1.171875 0.4375q-0.484375 0.421875 -0.484375 1.609375l0 3.40625l-1.046875 0zm10.705078 0l0 -0.78125q-0.59375 0.921875 -1.734375 0.921875q-0.75 0 -1.375 -0.40625q-0.625 -0.421875 -0.96875 -1.15625q-0.34375 -0.734375 -0.34375 -1.6875q0 -0.921875 0.3125 -1.6875q0.3125 -0.765625 0.9375 -1.15625q0.625 -0.40625 1.390625 -0.40625q0.5625 0 1.0 0.234375q0.4375 0.234375 0.71875 0.609375l0 -3.078125l1.046875 0l0 8.59375l-0.984375 0zm-3.328125 -3.109375q0 1.203125 0.5 1.796875q0.5 0.578125 1.1875 0.578125q0.6875 0 1.171875 -0.5625q0.484375 -0.5625 0.484375 -1.71875q0 -1.28125 -0.5 -1.875q-0.484375 -0.59375 -1.203125 -0.59375q-0.703125 0 -1.171875 0.578125q-0.46875 0.5625 -0.46875 1.796875zm10.033203 2.34375q-0.59375 0.5 -1.140625 0.703125q-0.53125 0.203125 -1.15625 0.203125q-1.03125 0 -1.578125 -0.5q-0.546875 -0.5 -0.546875 -1.28125q0 -0.453125 0.203125 -0.828125q0.203125 -0.390625 0.546875 -0.609375q0.34375 -0.234375 0.765625 -0.34375q0.296875 -0.09375 0.9375 -0.171875q1.265625 -0.140625 1.875 -0.359375q0 -0.21875 0 -0.265625q0 -0.65625 -0.296875 -0.921875q-0.40625 -0.34375 -1.203125 -0.34375q-0.734375 0 -1.09375 0.265625q-0.359375 0.25 -0.53125 0.90625l-1.03125 -0.140625q0.140625 -0.65625 0.46875 -1.0625q0.328125 -0.40625 0.9375 -0.625q0.609375 -0.21875 1.40625 -0.21875q0.796875 0 1.296875 0.1875q0.5 0.1875 0.734375 0.46875q0.234375 0.28125 0.328125 0.71875q0.046875 0.265625 0.046875 0.96875l0 1.40625q0 1.46875 0.0625 1.859375q0.078125 0.390625 0.28125 0.75l-1.109375 0q-0.15625 -0.328125 -0.203125 -0.765625zm-0.09375 -2.359375q-0.578125 0.234375 -1.71875 0.40625q-0.65625 0.09375 -0.921875 0.21875q-0.265625 0.109375 -0.421875 0.328125q-0.140625 0.21875 -0.140625 0.5q0 0.421875 0.3125 0.703125q0.328125 0.28125 0.9375 0.28125q0.609375 0 1.078125 -0.265625q0.484375 -0.265625 0.703125 -0.734375q0.171875 -0.359375 0.171875 -1.046875l0 -0.390625zm2.6894531 3.125l0 -6.21875l0.953125 0l0 0.9375q0.359375 -0.65625 0.65625 -0.859375q0.3125 -0.21875 0.6875 -0.21875q0.53125 0 1.078125 0.328125l-0.359375 0.984375q-0.390625 -0.234375 -0.765625 -0.234375q-0.359375 0 -0.640625 0.21875q-0.265625 0.203125 -0.375 0.578125q-0.1875 0.5625 -0.1875 1.21875l0 3.265625l-1.046875 0zm3.9648438 2.390625l-0.125 -0.984375q0.34375 0.09375 0.609375 0.09375q0.34375 0 0.546875 -0.125q0.21875 -0.109375 0.359375 -0.3125q0.09375 -0.171875 0.328125 -0.796875q0.015625 -0.078125 0.09375 -0.25l-2.375 -6.234375l1.140625 0l1.296875 3.59375q0.25 0.6875 0.453125 1.453125q0.1875 -0.734375 0.4375 -1.421875l1.328125 -3.625l1.046875 0l-2.359375 6.328125q-0.390625 1.015625 -0.59375 1.40625q-0.28125 0.53125 -0.65625 0.765625q-0.359375 0.25 -0.859375 0.25q-0.296875 0 -0.671875 -0.140625zm8.958984 -4.25l1.03125 -0.15625q0.09375 0.625 0.484375 0.953125q0.40625 0.328125 1.140625 0.328125q0.71875 0 1.0625 -0.28125q0.359375 -0.296875 0.359375 -0.703125q0 -0.359375 -0.3125 -0.5625q-0.21875 -0.140625 -1.078125 -0.359375q-1.15625 -0.296875 -1.609375 -0.5q-0.4375 -0.21875 -0.671875 -0.59375q-0.234375 -0.375 -0.234375 -0.84375q0 -0.40625 0.1875 -0.765625q0.1875 -0.359375 0.515625 -0.59375q0.25 -0.171875 0.671875 -0.296875q0.421875 -0.125 0.921875 -0.125q0.71875 0 1.265625 0.21875q0.5625 0.203125 0.828125 0.5625q0.265625 0.359375 0.359375 0.953125l-1.03125 0.140625q-0.0625 -0.46875 -0.40625 -0.734375q-0.328125 -0.28125 -0.953125 -0.28125q-0.71875 0 -1.03125 0.25q-0.3125 0.234375 -0.3125 0.5625q0 0.203125 0.125 0.359375q0.140625 0.171875 0.40625 0.28125q0.15625 0.0625 0.9375 0.265625q1.125 0.3125 1.5625 0.5q0.4375 0.1875 0.6875 0.546875q0.25 0.359375 0.25 0.90625q0 0.53125 -0.3125 1.0q-0.296875 0.453125 -0.875 0.71875q-0.578125 0.25 -1.3125 0.25q-1.21875 0 -1.859375 -0.5q-0.625 -0.515625 -0.796875 -1.5zm10.671875 -0.140625l1.09375 0.125q-0.25 0.953125 -0.953125 1.484375q-0.703125 0.53125 -1.78125 0.53125q-1.359375 0 -2.171875 -0.84375q-0.796875 -0.84375 -0.796875 -2.359375q0 -1.5625 0.8125 -2.421875q0.8125 -0.875 2.09375 -0.875q1.25 0 2.03125 0.84375q0.796875 0.84375 0.796875 2.390625q0 0.09375 0 0.28125l-4.640625 0q0.0625 1.03125 0.578125 1.578125q0.515625 0.53125 1.296875 0.53125q0.578125 0 0.984375 -0.296875q0.421875 -0.3125 0.65625 -0.96875zm-3.453125 -1.703125l3.46875 0q-0.0625 -0.796875 -0.390625 -1.1875q-0.515625 -0.609375 -1.3125 -0.609375q-0.734375 0 -1.234375 0.484375q-0.484375 0.484375 -0.53125 1.3125zm5.861328 3.703125l0 -6.21875l0.953125 0l0 0.9375q0.359375 -0.65625 0.65625 -0.859375q0.3125 -0.21875 0.6875 -0.21875q0.53125 0 1.078125 0.328125l-0.359375 0.984375q-0.390625 -0.234375 -0.765625 -0.234375q-0.359375 0 -0.640625 0.21875q-0.265625 0.203125 -0.375 0.578125q-0.1875 0.5625 -0.1875 1.21875l0 3.265625l-1.046875 0zm5.7304688 0l-2.359375 -6.21875l1.109375 0l1.34375 3.71875q0.203125 0.609375 0.390625 1.25q0.140625 -0.484375 0.390625 -1.171875l1.390625 -3.796875l1.078125 0l-2.359375 6.21875l-0.984375 0zm8.53125 -2.0l1.09375 0.125q-0.25 0.953125 -0.953125 1.484375q-0.703125 0.53125 -1.78125 0.53125q-1.359375 0 -2.171875 -0.84375q-0.796875 -0.84375 -0.796875 -2.359375q0 -1.5625 0.8125 -2.421875q0.8125 -0.875 2.09375 -0.875q1.25 0 2.03125 0.84375q0.796875 0.84375 0.796875 2.390625q0 0.09375 0 0.28125l-4.640625 0q0.0625 1.03125 0.578125 1.578125q0.515625 0.53125 1.296875 0.53125q0.578125 0 0.984375 -0.296875q0.421875 -0.3125 0.65625 -0.96875zm-3.453125 -1.703125l3.46875 0q-0.0625 -0.796875 -0.390625 -1.1875q-0.515625 -0.609375 -1.3125 -0.609375q-0.734375 0 -1.234375 0.484375q-0.484375 0.484375 -0.53125 1.3125zm5.861328 3.703125l0 -6.21875l0.953125 0l0 0.9375q0.359375 -0.65625 0.65625 -0.859375q0.3125 -0.21875 0.6875 -0.21875q0.53125 0 1.078125 0.328125l-0.359375 0.984375q-0.390625 -0.234375 -0.765625 -0.234375q-0.359375 0 -0.640625 0.21875q-0.265625 0.203125 -0.375 0.578125q-0.1875 0.5625 -0.1875 1.21875l0 3.265625l-1.046875 0zm3.5898438 -1.859375l1.03125 -0.15625q0.09375 0.625 0.484375 0.953125q0.40625 0.328125 1.140625 0.328125q0.71875 0 1.0625 -0.28125q0.359375 -0.296875 0.359375 -0.703125q0 -0.359375 -0.3125 -0.5625q-0.21875 -0.140625 -1.078125 -0.359375q-1.15625 -0.296875 -1.609375 -0.5q-0.4375 -0.21875 -0.671875 -0.59375q-0.234375 -0.375 -0.234375 -0.84375q0 -0.40625 0.1875 -0.765625q0.1875 -0.359375 0.515625 -0.59375q0.25 -0.171875 0.671875 -0.296875q0.421875 -0.125 0.921875 -0.125q0.71875 0 1.265625 0.21875q0.5625 0.203125 0.828125 0.5625q0.265625 0.359375 0.359375 0.953125l-1.03125 0.140625q-0.0625 -0.46875 -0.40625 -0.734375q-0.328125 -0.28125 -0.953125 -0.28125q-0.71875 0 -1.03125 0.25q-0.3125 0.234375 -0.3125 0.5625q0 0.203125 0.125 0.359375q0.140625 0.171875 0.40625 0.28125q0.15625 0.0625 0.9375 0.265625q1.125 0.3125 1.5625 0.5q0.4375 0.1875 0.6875 0.546875q0.25 0.359375 0.25 0.90625q0 0.53125 -0.3125 1.0q-0.296875 0.453125 -0.875 0.71875q-0.578125 0.25 -1.3125 0.25q-1.21875 0 -1.859375 -0.5q-0.625 -0.515625 -0.796875 -1.5z" fill-rule="nonzero"/><path fill="#000000" fill-opacity="0.0" d="m597.48706 190.44768l47.811035 0l0 26.204727l-47.811035 0z" fill-rule="evenodd"/><path fill="#000000" d="m607.40894 210.96768l0 -8.59375l2.96875 0q1.0 0 1.53125 0.125q0.734375 0.171875 1.25 0.609375q0.6875 0.578125 1.015625 1.484375q0.34375 0.890625 0.34375 2.03125q0 0.984375 -0.234375 1.734375q-0.21875 0.75 -0.578125 1.25q-0.359375 0.5 -0.796875 0.78125q-0.421875 0.28125 -1.015625 0.4375q-0.59375 0.140625 -1.375 0.140625l-3.109375 0zm1.140625 -1.015625l1.828125 0q0.859375 0 1.34375 -0.15625q0.484375 -0.15625 0.765625 -0.453125q0.40625 -0.390625 0.625 -1.078125q0.234375 -0.6875 0.234375 -1.65625q0 -1.34375 -0.453125 -2.0625q-0.4375 -0.734375 -1.0625 -0.984375q-0.46875 -0.171875 -1.46875 -0.171875l-1.8125 0l0 6.5625zm7.4785156 1.015625l0 -8.59375l3.234375 0q0.984375 0 1.578125 0.265625q0.59375 0.265625 0.921875 0.8125q0.34375 0.53125 0.34375 1.125q0 0.546875 -0.296875 1.03125q-0.296875 0.484375 -0.90625 0.78125q0.78125 0.234375 1.1875 0.796875q0.421875 0.546875 0.421875 1.296875q0 0.59375 -0.25 1.125q-0.25 0.515625 -0.625 0.796875q-0.375 0.28125 -0.953125 0.421875q-0.5625 0.140625 -1.375 0.140625l-3.28125 0zm1.140625 -4.984375l1.859375 0q0.75 0 1.078125 -0.09375q0.4375 -0.125 0.65625 -0.421875q0.21875 -0.3125 0.21875 -0.765625q0 -0.421875 -0.203125 -0.75q-0.203125 -0.328125 -0.59375 -0.4375q-0.375 -0.125 -1.296875 -0.125l-1.71875 0l0 2.59375zm0 3.96875l2.140625 0q0.546875 0 0.765625 -0.046875q0.40625 -0.0625 0.65625 -0.21875q0.265625 -0.171875 0.4375 -0.484375q0.171875 -0.3125 0.171875 -0.71875q0 -0.484375 -0.25 -0.84375q-0.234375 -0.359375 -0.671875 -0.5q-0.4375 -0.140625 -1.265625 -0.140625l-1.984375 0l0 2.953125zm13.791016 1.015625l-1.046875 0l0 -6.71875q-0.390625 0.359375 -1.015625 0.734375q-0.609375 0.359375 -1.09375 0.53125l0 -1.015625q0.875 -0.421875 1.53125 -1.0q0.671875 -0.59375 0.953125 -1.15625l0.671875 0l0 8.625z" fill-rule="nonzero"/><path fill="#000000" fill-opacity="0.0" d="m682.31213 191.21745l47.810974 0l0 26.204727l-47.810974 0z" fill-rule="evenodd"/><path fill="#000000" d="m692.234 211.73746l0 -8.59375l2.96875 0q1.0 0 1.53125 0.125q0.734375 0.171875 1.25 0.609375q0.6875 0.578125 1.015625 1.484375q0.34375 0.890625 0.34375 2.03125q0 0.984375 -0.234375 1.734375q-0.21875 0.75 -0.578125 1.25q-0.359375 0.5 -0.796875 0.78125q-0.421875 0.28125 -1.015625 0.4375q-0.59375 0.140625 -1.375 0.140625l-3.109375 0zm1.140625 -1.015625l1.828125 0q0.859375 0 1.34375 -0.15625q0.484375 -0.15625 0.765625 -0.453125q0.40625 -0.390625 0.625 -1.078125q0.234375 -0.6875 0.234375 -1.65625q0 -1.34375 -0.453125 -2.0625q-0.4375 -0.734375 -1.0625 -0.984375q-0.46875 -0.171875 -1.46875 -0.171875l-1.8125 0l0 6.5625zm7.4785156 1.015625l0 -8.59375l3.234375 0q0.984375 0 1.578125 0.265625q0.59375 0.265625 0.921875 0.8125q0.34375 0.53125 0.34375 1.125q0 0.546875 -0.296875 1.03125q-0.296875 0.484375 -0.90625 0.78125q0.78125 0.234375 1.1875 0.796875q0.421875 0.546875 0.421875 1.296875q0 0.59375 -0.25 1.125q-0.25 0.515625 -0.625 0.796875q-0.375 0.28125 -0.953125 0.421875q-0.5625 0.140625 -1.375 0.140625l-3.28125 0zm1.140625 -4.984375l1.859375 0q0.75 0 1.078125 -0.09375q0.4375 -0.125 0.65625 -0.421875q0.21875 -0.3125 0.21875 -0.765625q0 -0.421875 -0.203125 -0.75q-0.203125 -0.328125 -0.59375 -0.4375q-0.375 -0.125 -1.296875 -0.125l-1.71875 0l0 2.59375zm0 3.96875l2.140625 0q0.546875 0 0.765625 -0.046875q0.40625 -0.0625 0.65625 -0.21875q0.265625 -0.171875 0.4375 -0.484375q0.171875 -0.3125 0.171875 -0.71875q0 -0.484375 -0.25 -0.84375q-0.234375 -0.359375 -0.671875 -0.5q-0.4375 -0.140625 -1.265625 -0.140625l-1.984375 0l0 2.953125zm15.369141 0l0 1.015625l-5.6875 0q0 -0.375 0.125 -0.734375q0.21875 -0.578125 0.6875 -1.140625q0.484375 -0.5625 1.390625 -1.296875q1.40625 -1.15625 1.890625 -1.828125q0.5 -0.671875 0.5 -1.265625q0 -0.625 -0.453125 -1.046875q-0.453125 -0.4375 -1.171875 -0.4375q-0.765625 0 -1.21875 0.453125q-0.453125 0.453125 -0.46875 1.265625l-1.078125 -0.109375q0.109375 -1.21875 0.828125 -1.84375q0.734375 -0.640625 1.96875 -0.640625q1.234375 0 1.953125 0.6875q0.71875 0.6875 0.71875 1.703125q0 0.515625 -0.21875 1.015625q-0.203125 0.484375 -0.703125 1.046875q-0.484375 0.546875 -1.609375 1.5q-0.953125 0.796875 -1.234375 1.09375q-0.265625 0.28125 -0.4375 0.5625l4.21875 0z" fill-rule="nonzero"/><path fill="#000000" fill-opacity="0.0" d="m768.7019 190.44768l47.811035 0l0 26.204727l-47.811035 0z" fill-rule="evenodd"/><path fill="#000000" d="m778.6238 210.96768l0 -8.59375l2.96875 0q1.0 0 1.53125 0.125q0.734375 0.171875 1.25 0.609375q0.6875 0.578125 1.015625 1.484375q0.34375 0.890625 0.34375 2.03125q0 0.984375 -0.234375 1.734375q-0.21875 0.75 -0.578125 1.25q-0.359375 0.5 -0.796875 0.78125q-0.421875 0.28125 -1.015625 0.4375q-0.59375 0.140625 -1.375 0.140625l-3.109375 0zm1.140625 -1.015625l1.828125 0q0.859375 0 1.34375 -0.15625q0.484375 -0.15625 0.765625 -0.453125q0.40625 -0.390625 0.625 -1.078125q0.234375 -0.6875 0.234375 -1.65625q0 -1.34375 -0.453125 -2.0625q-0.4375 -0.734375 -1.0625 -0.984375q-0.46875 -0.171875 -1.46875 -0.171875l-1.8125 0l0 6.5625zm7.4785156 1.015625l0 -8.59375l3.234375 0q0.984375 0 1.578125 0.265625q0.59375 0.265625 0.921875 0.8125q0.34375 0.53125 0.34375 1.125q0 0.546875 -0.296875 1.03125q-0.296875 0.484375 -0.90625 0.78125q0.78125 0.234375 1.1875 0.796875q0.421875 0.546875 0.421875 1.296875q0 0.59375 -0.25 1.125q-0.25 0.515625 -0.625 0.796875q-0.375 0.28125 -0.953125 0.421875q-0.5625 0.140625 -1.375 0.140625l-3.28125 0zm1.140625 -4.984375l1.859375 0q0.75 0 1.078125 -0.09375q0.4375 -0.125 0.65625 -0.421875q0.21875 -0.3125 0.21875 -0.765625q0 -0.421875 -0.203125 -0.75q-0.203125 -0.328125 -0.59375 -0.4375q-0.375 -0.125 -1.296875 -0.125l-1.71875 0l0 2.59375zm0 3.96875l2.140625 0q0.546875 0 0.765625 -0.046875q0.40625 -0.0625 0.65625 -0.21875q0.265625 -0.171875 0.4375 -0.484375q0.171875 -0.3125 0.171875 -0.71875q0 -0.484375 -0.25 -0.84375q-0.234375 -0.359375 -0.671875 -0.5q-0.4375 -0.140625 -1.265625 -0.140625l-1.984375 0l0 2.953125zm9.822266 -1.25l1.0625 -0.140625q0.171875 0.890625 0.609375 1.296875q0.4375 0.390625 1.0625 0.390625q0.75 0 1.265625 -0.515625q0.515625 -0.515625 0.515625 -1.28125q0 -0.71875 -0.484375 -1.1875q-0.46875 -0.484375 -1.203125 -0.484375q-0.296875 0 -0.75 0.125l0.125 -0.9375q0.109375 0.015625 0.171875 0.015625q0.671875 0 1.203125 -0.34375q0.546875 -0.359375 0.546875 -1.09375q0 -0.578125 -0.390625 -0.953125q-0.390625 -0.390625 -1.015625 -0.390625q-0.609375 0 -1.03125 0.390625q-0.40625 0.390625 -0.515625 1.15625l-1.0625 -0.1875q0.1875 -1.046875 0.875 -1.625q0.6875 -0.59375 1.703125 -0.59375q0.703125 0 1.296875 0.3125q0.59375 0.296875 0.90625 0.8125q0.3125 0.515625 0.3125 1.109375q0 0.546875 -0.296875 1.015625q-0.296875 0.453125 -0.875 0.71875q0.75 0.171875 1.171875 0.734375q0.421875 0.546875 0.421875 1.390625q0 1.125 -0.828125 1.90625q-0.8125 0.78125 -2.0625 0.78125q-1.125 0 -1.875 -0.671875q-0.75 -0.6875 -0.859375 -1.75z" fill-rule="nonzero"/><path fill="#000000" fill-opacity="0.0" d="m597.47485 369.0401l47.811035 0l0 26.204742l-47.811035 0z" fill-rule="evenodd"/><path fill="#000000" d="m607.3967 389.56012l0 -8.59375l2.96875 0q1.0 0 1.53125 0.125q0.734375 0.171875 1.25 0.609375q0.6875 0.578125 1.015625 1.484375q0.34375 0.890625 0.34375 2.03125q0 0.984375 -0.234375 1.734375q-0.21875 0.75 -0.578125 1.25q-0.359375 0.5 -0.796875 0.78125q-0.421875 0.28125 -1.015625 0.4375q-0.59375 0.140625 -1.375 0.140625l-3.109375 0zm1.140625 -1.015625l1.828125 0q0.859375 0 1.34375 -0.15625q0.484375 -0.15625 0.765625 -0.453125q0.40625 -0.390625 0.625 -1.078125q0.234375 -0.6875 0.234375 -1.65625q0 -1.34375 -0.453125 -2.0625q-0.4375 -0.734375 -1.0625 -0.984375q-0.46875 -0.171875 -1.46875 -0.171875l-1.8125 0l0 6.5625zm7.4785156 1.015625l0 -8.59375l3.234375 0q0.984375 0 1.578125 0.265625q0.59375 0.265625 0.921875 0.8125q0.34375 0.53125 0.34375 1.125q0 0.546875 -0.296875 1.03125q-0.296875 0.484375 -0.90625 0.78125q0.78125 0.234375 1.1875 0.796875q0.421875 0.546875 0.421875 1.296875q0 0.59375 -0.25 1.125q-0.25 0.515625 -0.625 0.796875q-0.375 0.28125 -0.953125 0.421875q-0.5625 0.140625 -1.375 0.140625l-3.28125 0zm1.140625 -4.984375l1.859375 0q0.75 0 1.078125 -0.09375q0.4375 -0.125 0.65625 -0.421875q0.21875 -0.3125 0.21875 -0.765625q0 -0.421875 -0.203125 -0.75q-0.203125 -0.328125 -0.59375 -0.4375q-0.375 -0.125 -1.296875 -0.125l-1.71875 0l0 2.59375zm0 3.96875l2.140625 0q0.546875 0 0.765625 -0.046875q0.40625 -0.0625 0.65625 -0.21875q0.265625 -0.171875 0.4375 -0.484375q0.171875 -0.3125 0.171875 -0.71875q0 -0.484375 -0.25 -0.84375q-0.234375 -0.359375 -0.671875 -0.5q-0.4375 -0.140625 -1.265625 -0.140625l-1.984375 0l0 2.953125zm13.791016 1.015625l-1.046875 0l0 -6.71875q-0.390625 0.359375 -1.015625 0.734375q-0.609375 0.359375 -1.09375 0.53125l0 -1.015625q0.875 -0.421875 1.53125 -1.0q0.671875 -0.59375 0.953125 -1.15625l0.671875 0l0 8.625z" fill-rule="nonzero"/><path fill="#000000" fill-opacity="0.0" d="m682.2999 369.80988l47.810974 0l0 26.204742l-47.810974 0z" fill-rule="evenodd"/><path fill="#000000" d="m692.2218 390.3299l0 -8.59375l2.96875 0q1.0 0 1.53125 0.125q0.734375 0.171875 1.25 0.609375q0.6875 0.578125 1.015625 1.484375q0.34375 0.890625 0.34375 2.03125q0 0.984375 -0.234375 1.734375q-0.21875 0.75 -0.578125 1.25q-0.359375 0.5 -0.796875 0.78125q-0.421875 0.28125 -1.015625 0.4375q-0.59375 0.140625 -1.375 0.140625l-3.109375 0zm1.140625 -1.015625l1.828125 0q0.859375 0 1.34375 -0.15625q0.484375 -0.15625 0.765625 -0.453125q0.40625 -0.390625 0.625 -1.078125q0.234375 -0.6875 0.234375 -1.65625q0 -1.34375 -0.453125 -2.0625q-0.4375 -0.734375 -1.0625 -0.984375q-0.46875 -0.171875 -1.46875 -0.171875l-1.8125 0l0 6.5625zm7.4785156 1.015625l0 -8.59375l3.234375 0q0.984375 0 1.578125 0.265625q0.59375 0.265625 0.921875 0.8125q0.34375 0.53125 0.34375 1.125q0 0.546875 -0.296875 1.03125q-0.296875 0.484375 -0.90625 0.78125q0.78125 0.234375 1.1875 0.796875q0.421875 0.546875 0.421875 1.296875q0 0.59375 -0.25 1.125q-0.25 0.515625 -0.625 0.796875q-0.375 0.28125 -0.953125 0.421875q-0.5625 0.140625 -1.375 0.140625l-3.28125 0zm1.140625 -4.984375l1.859375 0q0.75 0 1.078125 -0.09375q0.4375 -0.125 0.65625 -0.421875q0.21875 -0.3125 0.21875 -0.765625q0 -0.421875 -0.203125 -0.75q-0.203125 -0.328125 -0.59375 -0.4375q-0.375 -0.125 -1.296875 -0.125l-1.71875 0l0 2.59375zm0 3.96875l2.140625 0q0.546875 0 0.765625 -0.046875q0.40625 -0.0625 0.65625 -0.21875q0.265625 -0.171875 0.4375 -0.484375q0.171875 -0.3125 0.171875 -0.71875q0 -0.484375 -0.25 -0.84375q-0.234375 -0.359375 -0.671875 -0.5q-0.4375 -0.140625 -1.265625 -0.140625l-1.984375 0l0 2.953125zm15.369141 0l0 1.015625l-5.6875 0q0 -0.375 0.125 -0.734375q0.21875 -0.578125 0.6875 -1.140625q0.484375 -0.5625 1.390625 -1.296875q1.40625 -1.15625 1.890625 -1.828125q0.5 -0.671875 0.5 -1.265625q0 -0.625 -0.453125 -1.046875q-0.453125 -0.4375 -1.171875 -0.4375q-0.765625 0 -1.21875 0.453125q-0.453125 0.453125 -0.46875 1.265625l-1.078125 -0.109375q0.109375 -1.21875 0.828125 -1.84375q0.734375 -0.640625 1.96875 -0.640625q1.234375 0 1.953125 0.6875q0.71875 0.6875 0.71875 1.703125q0 0.515625 -0.21875 1.015625q-0.203125 0.484375 -0.703125 1.046875q-0.484375 0.546875 -1.609375 1.5q-0.953125 0.796875 -1.234375 1.09375q-0.265625 0.28125 -0.4375 0.5625l4.21875 0z" fill-rule="nonzero"/><path fill="#000000" fill-opacity="0.0" d="m768.6897 369.0401l47.811035 0l0 26.204742l-47.811035 0z" fill-rule="evenodd"/><path fill="#000000" d="m778.6116 389.56012l0 -8.59375l2.96875 0q1.0 0 1.53125 0.125q0.734375 0.171875 1.25 0.609375q0.6875 0.578125 1.015625 1.484375q0.34375 0.890625 0.34375 2.03125q0 0.984375 -0.234375 1.734375q-0.21875 0.75 -0.578125 1.25q-0.359375 0.5 -0.796875 0.78125q-0.421875 0.28125 -1.015625 0.4375q-0.59375 0.140625 -1.375 0.140625l-3.109375 0zm1.140625 -1.015625l1.828125 0q0.859375 0 1.34375 -0.15625q0.484375 -0.15625 0.765625 -0.453125q0.40625 -0.390625 0.625 -1.078125q0.234375 -0.6875 0.234375 -1.65625q0 -1.34375 -0.453125 -2.0625q-0.4375 -0.734375 -1.0625 -0.984375q-0.46875 -0.171875 -1.46875 -0.171875l-1.8125 0l0 6.5625zm7.4785156 1.015625l0 -8.59375l3.234375 0q0.984375 0 1.578125 0.265625q0.59375 0.265625 0.921875 0.8125q0.34375 0.53125 0.34375 1.125q0 0.546875 -0.296875 1.03125q-0.296875 0.484375 -0.90625 0.78125q0.78125 0.234375 1.1875 0.796875q0.421875 0.546875 0.421875 1.296875q0 0.59375 -0.25 1.125q-0.25 0.515625 -0.625 0.796875q-0.375 0.28125 -0.953125 0.421875q-0.5625 0.140625 -1.375 0.140625l-3.28125 0zm1.140625 -4.984375l1.859375 0q0.75 0 1.078125 -0.09375q0.4375 -0.125 0.65625 -0.421875q0.21875 -0.3125 0.21875 -0.765625q0 -0.421875 -0.203125 -0.75q-0.203125 -0.328125 -0.59375 -0.4375q-0.375 -0.125 -1.296875 -0.125l-1.71875 0l0 2.59375zm0 3.96875l2.140625 0q0.546875 0 0.765625 -0.046875q0.40625 -0.0625 0.65625 -0.21875q0.265625 -0.171875 0.4375 -0.484375q0.171875 -0.3125 0.171875 -0.71875q0 -0.484375 -0.25 -0.84375q-0.234375 -0.359375 -0.671875 -0.5q-0.4375 -0.140625 -1.265625 -0.140625l-1.984375 0l0 2.953125zm9.822266 -1.25l1.0625 -0.140625q0.171875 0.890625 0.609375 1.296875q0.4375 0.390625 1.0625 0.390625q0.75 0 1.265625 -0.515625q0.515625 -0.515625 0.515625 -1.28125q0 -0.71875 -0.484375 -1.1875q-0.46875 -0.484375 -1.203125 -0.484375q-0.296875 0 -0.75 0.125l0.125 -0.9375q0.109375 0.015625 0.171875 0.015625q0.671875 0 1.203125 -0.34375q0.546875 -0.359375 0.546875 -1.09375q0 -0.578125 -0.390625 -0.953125q-0.390625 -0.390625 -1.015625 -0.390625q-0.609375 0 -1.03125 0.390625q-0.40625 0.390625 -0.515625 1.15625l-1.0625 -0.1875q0.1875 -1.046875 0.875 -1.625q0.6875 -0.59375 1.703125 -0.59375q0.703125 0 1.296875 0.3125q0.59375 0.296875 0.90625 0.8125q0.3125 0.515625 0.3125 1.109375q0 0.546875 -0.296875 1.015625q-0.296875 0.453125 -0.875 0.71875q0.75 0.171875 1.171875 0.734375q0.421875 0.546875 0.421875 1.390625q0 1.125 -0.828125 1.90625q-0.8125 0.78125 -2.0625 0.78125q-1.125 0 -1.875 -0.671875q-0.75 -0.6875 -0.859375 -1.75z" fill-rule="nonzero"/><path fill="#000000" fill-opacity="0.0" d="m455.70996 172.61543l82.519714 0l0 26.204727l-82.519714 0z" fill-rule="evenodd"/><path fill="#000000" d="m467.13184 193.13544l-2.28125 -8.59375l1.171875 0l1.3125 5.640625q0.203125 0.875 0.359375 1.75q0.328125 -1.375 0.390625 -1.59375l1.625 -5.796875l1.375 0l1.234375 4.34375q0.453125 1.625 0.671875 3.046875q0.15625 -0.8125 0.421875 -1.875l1.34375 -5.515625l1.140625 0l-2.34375 8.59375l-1.109375 0l-1.796875 -6.546875q-0.234375 -0.8125 -0.28125 -1.0q-0.125 0.578125 -0.25 1.0l-1.8125 6.546875l-1.171875 0zm9.46875 0l0 -6.21875l0.953125 0l0 0.9375q0.359375 -0.65625 0.65625 -0.859375q0.3125 -0.21875 0.6875 -0.21875q0.53125 0 1.078125 0.328125l-0.359375 0.984375q-0.390625 -0.234375 -0.765625 -0.234375q-0.359375 0 -0.640625 0.21875q-0.265625 0.203125 -0.375 0.578125q-0.1875 0.5625 -0.1875 1.21875l0 3.265625l-1.046875 0zm4.0117188 -7.375l0 -1.21875l1.0625 0l0 1.21875l-1.0625 0zm0 7.375l0 -6.21875l1.0625 0l0 6.21875l-1.0625 0zm4.9628906 -0.9375l0.15625 0.921875q-0.453125 0.09375 -0.796875 0.09375q-0.578125 0 -0.890625 -0.171875q-0.3125 -0.1875 -0.453125 -0.484375q-0.125 -0.296875 -0.125 -1.25l0 -3.578125l-0.765625 0l0 -0.8125l0.765625 0l0 -1.546875l1.046875 -0.625l0 2.171875l1.0625 0l0 0.8125l-1.0625 0l0 3.640625q0 0.453125 0.046875 0.578125q0.0625 0.125 0.1875 0.203125q0.125 0.078125 0.359375 0.078125q0.1875 0 0.46875 -0.03125zm5.2871094 -1.0625l1.09375 0.125q-0.25 0.953125 -0.953125 1.484375q-0.703125 0.53125 -1.78125 0.53125q-1.359375 0 -2.171875 -0.84375q-0.796875 -0.84375 -0.796875 -2.359375q0 -1.5625 0.8125 -2.421875q0.8125 -0.875 2.09375 -0.875q1.25 0 2.03125 0.84375q0.796875 0.84375 0.796875 2.390625q0 0.09375 0 0.28125l-4.640625 0q0.0625 1.03125 0.578125 1.578125q0.515625 0.53125 1.296875 0.53125q0.578125 0 0.984375 -0.296875q0.421875 -0.3125 0.65625 -0.96875zm-3.453125 -1.703125l3.46875 0q-0.0625 -0.796875 -0.390625 -1.1875q-0.515625 -0.609375 -1.3125 -0.609375q-0.734375 0 -1.234375 0.484375q-0.484375 0.484375 -0.53125 1.3125zm11.5078125 2.765625l0.15625 0.921875q-0.453125 0.09375 -0.796875 0.09375q-0.578125 0 -0.890625 -0.171875q-0.3125 -0.1875 -0.453125 -0.484375q-0.125 -0.296875 -0.125 -1.25l0 -3.578125l-0.765625 0l0 -0.8125l0.765625 0l0 -1.546875l1.046875 -0.625l0 2.171875l1.0625 0l0 0.8125l-1.0625 0l0 3.640625q0 0.453125 0.046875 0.578125q0.0625 0.125 0.1875 0.203125q0.125 0.078125 0.359375 0.078125q0.1875 0 0.46875 -0.03125zm1.0214844 0.9375l0 -6.21875l0.953125 0l0 0.9375q0.359375 -0.65625 0.65625 -0.859375q0.3125 -0.21875 0.6875 -0.21875q0.53125 0 1.078125 0.328125l-0.359375 0.984375q-0.390625 -0.234375 -0.765625 -0.234375q-0.359375 0 -0.640625 0.21875q-0.265625 0.203125 -0.375 0.578125q-0.1875 0.5625 -0.1875 1.21875l0 3.265625l-1.046875 0zm8.074219 -0.765625q-0.59375 0.5 -1.140625 0.703125q-0.53125 0.203125 -1.15625 0.203125q-1.03125 0 -1.578125 -0.5q-0.546875 -0.5 -0.546875 -1.28125q0 -0.453125 0.203125 -0.828125q0.203125 -0.390625 0.546875 -0.609375q0.34375 -0.234375 0.765625 -0.34375q0.296875 -0.09375 0.9375 -0.171875q1.265625 -0.140625 1.875 -0.359375q0 -0.21875 0 -0.265625q0 -0.65625 -0.296875 -0.921875q-0.40625 -0.34375 -1.203125 -0.34375q-0.734375 0 -1.09375 0.265625q-0.359375 0.25 -0.53125 0.90625l-1.03125 -0.140625q0.140625 -0.65625 0.46875 -1.0625q0.328125 -0.40625 0.9375 -0.625q0.609375 -0.21875 1.40625 -0.21875q0.796875 0 1.296875 0.1875q0.5 0.1875 0.734375 0.46875q0.234375 0.28125 0.328125 0.71875q0.046875 0.265625 0.046875 0.96875l0 1.40625q0 1.46875 0.0625 1.859375q0.078125 0.390625 0.28125 0.75l-1.109375 0q-0.15625 -0.328125 -0.203125 -0.765625zm-0.09375 -2.359375q-0.578125 0.234375 -1.71875 0.40625q-0.65625 0.09375 -0.921875 0.21875q-0.265625 0.109375 -0.421875 0.328125q-0.140625 0.21875 -0.140625 0.5q0 0.421875 0.3125 0.703125q0.328125 0.28125 0.9375 0.28125q0.609375 0 1.078125 -0.265625q0.484375 -0.265625 0.703125 -0.734375q0.171875 -0.359375 0.171875 -1.046875l0 -0.390625zm2.9550781 3.125l0 -5.40625l-0.9375 0l0 -0.8125l0.9375 0l0 -0.671875q0 -0.625 0.109375 -0.921875q0.15625 -0.421875 0.53125 -0.671875q0.390625 -0.25 1.078125 -0.25q0.453125 0 0.984375 0.109375l-0.15625 0.90625q-0.328125 -0.046875 -0.625 -0.046875q-0.484375 0 -0.6875 0.203125q-0.1875 0.203125 -0.1875 0.765625l0 0.578125l1.21875 0l0 0.8125l-1.21875 0l0 5.40625l-1.046875 0zm3.1171875 0l0 -5.40625l-0.9375 0l0 -0.8125l0.9375 0l0 -0.671875q0 -0.625 0.109375 -0.921875q0.15625 -0.421875 0.53125 -0.671875q0.390625 -0.25 1.078125 -0.25q0.453125 0 0.984375 0.109375l-0.15625 0.90625q-0.328125 -0.046875 -0.625 -0.046875q-0.484375 0 -0.6875 0.203125q-0.1875 0.203125 -0.1875 0.765625l0 0.578125l1.21875 0l0 0.8125l-1.21875 0l0 5.40625l-1.046875 0zm3.0839844 -7.375l0 -1.21875l1.0625 0l0 1.21875l-1.0625 0zm0 7.375l0 -6.21875l1.0625 0l0 6.21875l-1.0625 0zm6.7285156 -2.28125l1.03125 0.140625q-0.171875 1.0625 -0.875 1.671875q-0.703125 0.609375 -1.71875 0.609375q-1.28125 0 -2.0625 -0.828125q-0.765625 -0.84375 -0.765625 -2.40625q0 -1.0 0.328125 -1.75q0.34375 -0.765625 1.015625 -1.140625q0.6875 -0.375 1.5 -0.375q1.0 0 1.640625 0.515625q0.65625 0.5 0.84375 1.453125l-1.03125 0.15625q-0.140625 -0.625 -0.515625 -0.9375q-0.375 -0.328125 -0.90625 -0.328125q-0.796875 0 -1.296875 0.578125q-0.5 0.5625 -0.5 1.796875q0 1.265625 0.484375 1.828125q0.484375 0.5625 1.25 0.5625q0.625 0 1.03125 -0.375q0.421875 -0.375 0.546875 -1.171875z" fill-rule="nonzero"/><path fill="#000000" fill-opacity="0.0" d="m453.78873 333.915l82.519684 0l0 26.204712l-82.519684 0z" fill-rule="evenodd"/><path fill="#000000" d="m463.72623 354.435l0 -8.59375l3.8125 0q1.15625 0 1.75 0.234375q0.59375 0.234375 0.953125 0.828125q0.359375 0.578125 0.359375 1.28125q0 0.921875 -0.59375 1.546875q-0.59375 0.625 -1.828125 0.796875q0.453125 0.21875 0.6875 0.421875q0.5 0.453125 0.9375 1.140625l1.5 2.34375l-1.4375 0l-1.125 -1.78125q-0.5 -0.78125 -0.828125 -1.1875q-0.3125 -0.40625 -0.578125 -0.5625q-0.25 -0.171875 -0.515625 -0.25q-0.1875 -0.03125 -0.625 -0.03125l-1.328125 0l0 3.8125l-1.140625 0zm1.140625 -4.796875l2.453125 0q0.765625 0 1.203125 -0.15625q0.453125 -0.171875 0.671875 -0.515625q0.234375 -0.359375 0.234375 -0.78125q0 -0.609375 -0.453125 -1.0q-0.4375 -0.390625 -1.390625 -0.390625l-2.71875 0l0 2.84375zm11.634766 2.796875l1.09375 0.125q-0.25 0.953125 -0.953125 1.484375q-0.703125 0.53125 -1.78125 0.53125q-1.359375 0 -2.171875 -0.84375q-0.796875 -0.84375 -0.796875 -2.359375q0 -1.5625 0.8125 -2.421875q0.8125 -0.875 2.09375 -0.875q1.25 0 2.03125 0.84375q0.796875 0.84375 0.796875 2.390625q0 0.09375 0 0.28125l-4.640625 0q0.0625 1.03125 0.578125 1.578125q0.515625 0.53125 1.296875 0.53125q0.578125 0 0.984375 -0.296875q0.421875 -0.3125 0.65625 -0.96875zm-3.453125 -1.703125l3.46875 0q-0.0625 -0.796875 -0.390625 -1.1875q-0.515625 -0.609375 -1.3125 -0.609375q-0.734375 0 -1.234375 0.484375q-0.484375 0.484375 -0.53125 1.3125zm9.939453 2.9375q-0.59375 0.5 -1.140625 0.703125q-0.53125 0.203125 -1.15625 0.203125q-1.03125 0 -1.578125 -0.5q-0.546875 -0.5 -0.546875 -1.28125q0 -0.453125 0.203125 -0.828125q0.203125 -0.390625 0.546875 -0.609375q0.34375 -0.234375 0.765625 -0.34375q0.296875 -0.09375 0.9375 -0.171875q1.265625 -0.140625 1.875 -0.359375q0 -0.21875 0 -0.265625q0 -0.65625 -0.296875 -0.921875q-0.40625 -0.34375 -1.203125 -0.34375q-0.734375 0 -1.09375 0.265625q-0.359375 0.25 -0.53125 0.90625l-1.03125 -0.140625q0.140625 -0.65625 0.46875 -1.0625q0.328125 -0.40625 0.9375 -0.625q0.609375 -0.21875 1.40625 -0.21875q0.796875 0 1.296875 0.1875q0.5 0.1875 0.734375 0.46875q0.234375 0.28125 0.328125 0.71875q0.046875 0.265625 0.046875 0.96875l0 1.40625q0 1.46875 0.0625 1.859375q0.078125 0.390625 0.28125 0.75l-1.109375 0q-0.15625 -0.328125 -0.203125 -0.765625zm-0.09375 -2.359375q-0.578125 0.234375 -1.71875 0.40625q-0.65625 0.09375 -0.921875 0.21875q-0.265625 0.109375 -0.421875 0.328125q-0.140625 0.21875 -0.140625 0.5q0 0.421875 0.3125 0.703125q0.328125 0.28125 0.9375 0.28125q0.609375 0 1.078125 -0.265625q0.484375 -0.265625 0.703125 -0.734375q0.171875 -0.359375 0.171875 -1.046875l0 -0.390625zm6.736328 3.125l0 -0.78125q-0.59375 0.921875 -1.734375 0.921875q-0.75 0 -1.375 -0.40625q-0.625 -0.421875 -0.96875 -1.15625q-0.34375 -0.734375 -0.34375 -1.6875q0 -0.921875 0.3125 -1.6875q0.3125 -0.765625 0.9375 -1.15625q0.625 -0.40625 1.390625 -0.40625q0.5625 0 1.0 0.234375q0.4375 0.234375 0.71875 0.609375l0 -3.078125l1.046875 0l0 8.59375l-0.984375 0zm-3.328125 -3.109375q0 1.203125 0.5 1.796875q0.5 0.578125 1.1875 0.578125q0.6875 0 1.171875 -0.5625q0.484375 -0.5625 0.484375 -1.71875q0 -1.28125 -0.5 -1.875q-0.484375 -0.59375 -1.203125 -0.59375q-0.703125 0 -1.171875 0.578125q-0.46875 0.5625 -0.46875 1.796875zm11.6015625 2.171875l0.15625 0.921875q-0.453125 0.09375 -0.796875 0.09375q-0.578125 0 -0.890625 -0.171875q-0.3125 -0.1875 -0.453125 -0.484375q-0.125 -0.296875 -0.125 -1.25l0 -3.578125l-0.765625 0l0 -0.8125l0.765625 0l0 -1.546875l1.046875 -0.625l0 2.171875l1.0625 0l0 0.8125l-1.0625 0l0 3.640625q0 0.453125 0.046875 0.578125q0.0625 0.125 0.1875 0.203125q0.125 0.078125 0.359375 0.078125q0.1875 0 0.46875 -0.03125zm1.0214844 0.9375l0 -6.21875l0.953125 0l0 0.9375q0.359375 -0.65625 0.65625 -0.859375q0.3125 -0.21875 0.6875 -0.21875q0.53125 0 1.078125 0.328125l-0.359375 0.984375q-0.390625 -0.234375 -0.765625 -0.234375q-0.359375 0 -0.640625 0.21875q-0.265625 0.203125 -0.375 0.578125q-0.1875 0.5625 -0.1875 1.21875l0 3.265625l-1.046875 0zm8.074219 -0.765625q-0.59375 0.5 -1.140625 0.703125q-0.53125 0.203125 -1.15625 0.203125q-1.03125 0 -1.578125 -0.5q-0.546875 -0.5 -0.546875 -1.28125q0 -0.453125 0.203125 -0.828125q0.203125 -0.390625 0.546875 -0.609375q0.34375 -0.234375 0.765625 -0.34375q0.296875 -0.09375 0.9375 -0.171875q1.265625 -0.140625 1.875 -0.359375q0 -0.21875 0 -0.265625q0 -0.65625 -0.296875 -0.921875q-0.40625 -0.34375 -1.203125 -0.34375q-0.734375 0 -1.09375 0.265625q-0.359375 0.25 -0.53125 0.90625l-1.03125 -0.140625q0.140625 -0.65625 0.46875 -1.0625q0.328125 -0.40625 0.9375 -0.625q0.609375 -0.21875 1.40625 -0.21875q0.796875 0 1.296875 0.1875q0.5 0.1875 0.734375 0.46875q0.234375 0.28125 0.328125 0.71875q0.046875 0.265625 0.046875 0.96875l0 1.40625q0 1.46875 0.0625 1.859375q0.078125 0.390625 0.28125 0.75l-1.109375 0q-0.15625 -0.328125 -0.203125 -0.765625zm-0.09375 -2.359375q-0.578125 0.234375 -1.71875 0.40625q-0.65625 0.09375 -0.921875 0.21875q-0.265625 0.109375 -0.421875 0.328125q-0.140625 0.21875 -0.140625 0.5q0 0.421875 0.3125 0.703125q0.328125 0.28125 0.9375 0.28125q0.609375 0 1.078125 -0.265625q0.484375 -0.265625 0.703125 -0.734375q0.171875 -0.359375 0.171875 -1.046875l0 -0.390625zm2.9550781 3.125l0 -5.40625l-0.9375 0l0 -0.8125l0.9375 0l0 -0.671875q0 -0.625 0.109375 -0.921875q0.15625 -0.421875 0.53125 -0.671875q0.390625 -0.25 1.078125 -0.25q0.45309448 0 0.9843445 0.109375l-0.15625 0.90625q-0.328125 -0.046875 -0.6249695 -0.046875q-0.484375 0 -0.6875 0.203125q-0.1875 0.203125 -0.1875 0.765625l0 0.578125l1.2187195 0l0 0.8125l-1.2187195 0l0 5.40625l-1.046875 0zm3.117157 0l0 -5.40625l-0.9375 0l0 -0.8125l0.9375 0l0 -0.671875q0 -0.625 0.109375 -0.921875q0.15625 -0.421875 0.53125 -0.671875q0.390625 -0.25 1.078125 -0.25q0.453125 0 0.984375 0.109375l-0.15625 0.90625q-0.328125 -0.046875 -0.625 -0.046875q-0.484375 0 -0.6875 0.203125q-0.1875 0.203125 -0.1875 0.765625l0 0.578125l1.21875 0l0 0.8125l-1.21875 0l0 5.40625l-1.046875 0zm3.0839844 -7.375l0 -1.21875l1.0625 0l0 1.21875l-1.0625 0zm0 7.375l0 -6.21875l1.0625 0l0 6.21875l-1.0625 0zm6.7285156 -2.28125l1.03125 0.140625q-0.171875 1.0625 -0.875 1.671875q-0.703125 0.609375 -1.71875 0.609375q-1.28125 0 -2.0625 -0.828125q-0.765625 -0.84375 -0.765625 -2.40625q0 -1.0 0.328125 -1.75q0.34375 -0.765625 1.015625 -1.140625q0.6875 -0.375 1.5 -0.375q1.0 0 1.640625 0.515625q0.65625 0.5 0.84375 1.453125l-1.03125 0.15625q-0.140625 -0.625 -0.515625 -0.9375q-0.375 -0.328125 -0.90625 -0.328125q-0.796875 0 -1.296875 0.578125q-0.5 0.5625 -0.5 1.796875q0 1.265625 0.484375 1.828125q0.484375 0.5625 1.25 0.5625q0.625 0 1.03125 -0.375q0.421875 -0.375 0.546875 -1.171875z" fill-rule="nonzero"/><path fill="#000000" fill-opacity="0.0" d="m704.67456 233.95145l0 36.048676l0.06298828 0l0 36.045807" fill-rule="evenodd"/><path stroke="#595959" stroke-width="1.0" stroke-linejoin="round" stroke-linecap="butt" d="m704.67456 233.95145l0 36.048676l0.06298828 0l0 30.045807" fill-rule="evenodd"/><path fill="#595959" stroke="#595959" stroke-width="1.0" stroke-linecap="butt" d="m703.0858 300.04593l1.6517334 4.538086l1.6517334 -4.538086z" fill-rule="evenodd"/><path fill="#000000" fill-opacity="0.0" d="m135.91077 96.44095l41.637787 0l0 26.20472l-41.637787 0z" fill-rule="evenodd"/><path fill="#000000" d="m144.89514 116.960945l3.296875 -8.59375l1.21875 0l3.515625 8.59375l-1.28125 0l-1.015625 -2.609375l-3.578125 0l-0.953125 2.609375l-1.203125 0zm2.484375 -3.53125l2.90625 0l-0.890625 -2.375q-0.421875 -1.078125 -0.609375 -1.78125q-0.171875 0.828125 -0.46875 1.640625l-0.9375 2.515625zm6.3320312 5.921875l0 -8.609375l0.953125 0l0 0.796875q0.34375 -0.46875 0.765625 -0.703125q0.4375 -0.234375 1.046875 -0.234375q0.796875 0 1.40625 0.40625q0.609375 0.40625 0.90625 1.15625q0.3125 0.75 0.3125 1.640625q0 0.953125 -0.34375 1.71875q-0.328125 0.765625 -0.984375 1.171875q-0.65625 0.40625 -1.375 0.40625q-0.53125 0 -0.953125 -0.21875q-0.421875 -0.234375 -0.6875 -0.5625l0 3.03125l-1.046875 0zm0.953125 -5.46875q0 1.203125 0.484375 1.78125q0.484375 0.5625 1.171875 0.5625q0.703125 0 1.203125 -0.59375q0.5 -0.59375 0.5 -1.84375q0 -1.1875 -0.484375 -1.765625q-0.484375 -0.59375 -1.171875 -0.59375q-0.671875 0 -1.1875 0.625q-0.515625 0.625 -0.515625 1.828125zm5.720703 5.46875l0 -8.609375l0.953125 0l0 0.796875q0.34375 -0.46875 0.765625 -0.703125q0.4375 -0.234375 1.046875 -0.234375q0.796875 0 1.40625 0.40625q0.609375 0.40625 0.90625 1.15625q0.3125 0.75 0.3125 1.640625q0 0.953125 -0.34375 1.71875q-0.328125 0.765625 -0.984375 1.171875q-0.65625 0.40625 -1.375 0.40625q-0.53125 0 -0.953125 -0.21875q-0.421875 -0.234375 -0.6875 -0.5625l0 3.03125l-1.046875 0zm0.953125 -5.46875q0 1.203125 0.484375 1.78125q0.484375 0.5625 1.171875 0.5625q0.703125 0 1.203125 -0.59375q0.5 -0.59375 0.5 -1.84375q0 -1.1875 -0.484375 -1.765625q-0.484375 -0.59375 -1.171875 -0.59375q-0.671875 0 -1.1875 0.625q-0.515625 0.625 -0.515625 1.828125z" fill-rule="nonzero"/><path fill="#000000" fill-opacity="0.0" d="m135.91077 217.42258l41.637787 0l0 26.204727l-41.637787 0z" fill-rule="evenodd"/><path fill="#000000" d="m144.89514 237.94257l3.296875 -8.59375l1.21875 0l3.515625 8.59375l-1.28125 0l-1.015625 -2.609375l-3.578125 0l-0.953125 2.609375l-1.203125 0zm2.484375 -3.53125l2.90625 0l-0.890625 -2.375q-0.421875 -1.078125 -0.609375 -1.78125q-0.171875 0.828125 -0.46875 1.640625l-0.9375 2.515625zm6.3320312 5.921875l0 -8.609375l0.953125 0l0 0.796875q0.34375 -0.46875 0.765625 -0.703125q0.4375 -0.234375 1.046875 -0.234375q0.796875 0 1.40625 0.40625q0.609375 0.40625 0.90625 1.15625q0.3125 0.75 0.3125 1.640625q0 0.953125 -0.34375 1.71875q-0.328125 0.765625 -0.984375 1.171875q-0.65625 0.40625 -1.375 0.40625q-0.53125 0 -0.953125 -0.21875q-0.421875 -0.234375 -0.6875 -0.5625l0 3.03125l-1.046875 0zm0.953125 -5.46875q0 1.203125 0.484375 1.78125q0.484375 0.5625 1.171875 0.5625q0.703125 0 1.203125 -0.59375q0.5 -0.59375 0.5 -1.84375q0 -1.1875 -0.484375 -1.765625q-0.484375 -0.59375 -1.171875 -0.59375q-0.671875 0 -1.1875 0.625q-0.515625 0.625 -0.515625 1.828125zm5.720703 5.46875l0 -8.609375l0.953125 0l0 0.796875q0.34375 -0.46875 0.765625 -0.703125q0.4375 -0.234375 1.046875 -0.234375q0.796875 0 1.40625 0.40625q0.609375 0.40625 0.90625 1.15625q0.3125 0.75 0.3125 1.640625q0 0.953125 -0.34375 1.71875q-0.328125 0.765625 -0.984375 1.171875q-0.65625 0.40625 -1.375 0.40625q-0.53125 0 -0.953125 -0.21875q-0.421875 -0.234375 -0.6875 -0.5625l0 3.03125l-1.046875 0zm0.953125 -5.46875q0 1.203125 0.484375 1.78125q0.484375 0.5625 1.171875 0.5625q0.703125 0 1.203125 -0.59375q0.5 -0.59375 0.5 -1.84375q0 -1.1875 -0.484375 -1.765625q-0.484375 -0.59375 -1.171875 -0.59375q-0.671875 0 -1.1875 0.625q-0.515625 0.625 -0.515625 1.828125z" fill-rule="nonzero"/><path fill="#000000" fill-opacity="0.0" d="m131.86351 338.4042l41.637802 0l0 26.204712l-41.637802 0z" fill-rule="evenodd"/><path fill="#000000" d="m140.84789 358.9242l3.296875 -8.59375l1.21875 0l3.515625 8.59375l-1.28125 0l-1.015625 -2.609375l-3.578125 0l-0.953125 2.609375l-1.203125 0zm2.484375 -3.53125l2.90625 0l-0.890625 -2.375q-0.421875 -1.078125 -0.609375 -1.78125q-0.171875 0.828125 -0.46875 1.640625l-0.9375 2.515625zm6.3320312 5.921875l0 -8.609375l0.953125 0l0 0.796875q0.34375 -0.46875 0.765625 -0.703125q0.4375 -0.234375 1.046875 -0.234375q0.796875 0 1.40625 0.40625q0.609375 0.40625 0.90625 1.15625q0.3125 0.75 0.3125 1.640625q0 0.953125 -0.34375 1.71875q-0.328125 0.765625 -0.984375 1.171875q-0.65625 0.40625 -1.375 0.40625q-0.53125 0 -0.953125 -0.21875q-0.421875 -0.234375 -0.6875 -0.5625l0 3.03125l-1.046875 0zm0.953125 -5.46875q0 1.203125 0.484375 1.78125q0.484375 0.5625 1.171875 0.5625q0.703125 0 1.203125 -0.59375q0.5 -0.59375 0.5 -1.84375q0 -1.1875 -0.484375 -1.765625q-0.484375 -0.59375 -1.171875 -0.59375q-0.671875 0 -1.1875 0.625q-0.515625 0.625 -0.515625 1.828125zm5.720703 5.46875l0 -8.609375l0.953125 0l0 0.796875q0.34375 -0.46875 0.765625 -0.703125q0.4375 -0.234375 1.046875 -0.234375q0.796875 0 1.40625 0.40625q0.609375 0.40625 0.90625 1.15625q0.3125 0.75 0.3125 1.640625q0 0.953125 -0.34375 1.71875q-0.328125 0.765625 -0.984375 1.171875q-0.65625 0.40625 -1.375 0.40625q-0.53125 0 -0.953125 -0.21875q-0.421875 -0.234375 -0.6875 -0.5625l0 3.03125l-1.046875 0zm0.953125 -5.46875q0 1.203125 0.484375 1.78125q0.484375 0.5625 1.171875 0.5625q0.703125 0 1.203125 -0.59375q0.5 -0.59375 0.5 -1.84375q0 -1.1875 -0.484375 -1.765625q-0.484375 -0.59375 -1.171875 -0.59375q-0.671875 0 -1.1875 0.625q-0.515625 0.625 -0.515625 1.828125z" fill-rule="nonzero"/></g></svg>